<svg xmlns="http://www.w3.org/2000/svg" xmlns:xlink="http://www.w3.org/1999/xlink" width="100" zoomAndPan="magnify" viewBox="0 0 75 74.999997" height="100" preserveAspectRatio="xMidYMid meet" version="1.0"><path fill="#ffffff" d="M 37.5 12.101562 C 36.480469 12.101562 35.46875 12.175781 34.460938 12.324219 C 33.453125 12.472656 32.460938 12.699219 31.488281 12.996094 C 30.515625 13.292969 29.566406 13.660156 28.648438 14.097656 C 27.726562 14.535156 26.84375 15.035156 26 15.605469 C 25.15625 16.171875 24.355469 16.800781 23.605469 17.488281 C 22.851562 18.175781 22.15625 18.914062 21.515625 19.703125 C 20.871094 20.496094 20.292969 21.328125 19.773438 22.203125 C 19.253906 23.082031 18.804688 23.992188 18.421875 24.933594 C 18.039062 25.878906 17.726562 26.84375 17.484375 27.835938 C 17.246094 28.824219 17.082031 29.828125 16.988281 30.839844 C 16.898438 31.855469 16.882812 32.871094 16.941406 33.886719 C 17.003906 34.902344 17.136719 35.910156 17.34375 36.90625 C 17.554688 37.902344 17.835938 38.878906 18.191406 39.835938 C 18.542969 40.789062 18.96875 41.710938 19.457031 42.605469 C 19.949219 43.496094 20.503906 44.347656 21.121094 45.15625 C 21.738281 45.96875 22.414062 46.726562 23.140625 47.4375 L 21.984375 50.523438 C 21.835938 50.917969 21.75 51.324219 21.722656 51.742188 C 21.695312 52.160156 21.726562 52.574219 21.820312 52.984375 C 21.910156 53.394531 22.058594 53.78125 22.261719 54.148438 C 22.46875 54.515625 22.71875 54.84375 23.019531 55.136719 C 23.496094 55.609375 23.992188 56.058594 24.511719 56.480469 C 25.03125 56.902344 25.570312 57.300781 26.128906 57.671875 C 26.6875 58.042969 27.261719 58.382812 27.851562 58.699219 C 28.445312 59.011719 29.050781 59.296875 29.667969 59.550781 C 30.289062 59.804688 30.917969 60.03125 31.5625 60.222656 C 32.203125 60.417969 32.851562 60.578125 33.507812 60.710938 C 34.164062 60.839844 34.828125 60.9375 35.496094 61.003906 C 36.160156 61.066406 36.828125 61.101562 37.5 61.101562 C 38.167969 61.101562 38.835938 61.066406 39.503906 61.003906 C 40.171875 60.9375 40.832031 60.839844 41.488281 60.710938 C 42.148438 60.578125 42.796875 60.417969 43.4375 60.222656 C 44.078125 60.03125 44.707031 59.804688 45.328125 59.550781 C 45.949219 59.296875 46.554688 59.011719 47.144531 58.699219 C 47.738281 58.382812 48.3125 58.042969 48.871094 57.671875 C 49.425781 57.300781 49.964844 56.902344 50.484375 56.480469 C 51.003906 56.058594 51.503906 55.609375 51.976562 55.136719 C 52.277344 54.84375 52.53125 54.515625 52.734375 54.148438 C 52.9375 53.78125 53.085938 53.394531 53.179688 52.984375 C 53.269531 52.574219 53.304688 52.160156 53.277344 51.742188 C 53.246094 51.324219 53.160156 50.917969 53.015625 50.523438 L 51.855469 47.4375 C 52.585938 46.726562 53.261719 45.96875 53.878906 45.15625 C 54.496094 44.347656 55.050781 43.496094 55.539062 42.605469 C 56.03125 41.710938 56.453125 40.789062 56.808594 39.835938 C 57.160156 38.878906 57.445312 37.902344 57.652344 36.90625 C 57.863281 35.910156 57.996094 34.902344 58.054688 33.886719 C 58.117188 32.871094 58.101562 31.855469 58.007812 30.839844 C 57.917969 29.828125 57.753906 28.824219 57.511719 27.835938 C 57.273438 26.84375 56.960938 25.878906 56.578125 24.933594 C 56.195312 23.992188 55.742188 23.082031 55.226562 22.203125 C 54.707031 21.328125 54.125 20.496094 53.484375 19.703125 C 52.84375 18.914062 52.144531 18.175781 51.394531 17.488281 C 50.640625 16.800781 49.84375 16.171875 48.996094 15.605469 C 48.152344 15.035156 47.269531 14.535156 46.351562 14.097656 C 45.429688 13.660156 44.484375 13.292969 43.511719 12.996094 C 42.535156 12.699219 41.546875 12.472656 40.539062 12.324219 C 39.53125 12.175781 38.515625 12.101562 37.5 12.101562 Z M 50.835938 53.980469 C 50.398438 54.414062 49.9375 54.824219 49.460938 55.214844 C 48.980469 55.605469 48.484375 55.96875 47.972656 56.308594 C 47.457031 56.652344 46.925781 56.964844 46.382812 57.253906 C 45.835938 57.542969 45.28125 57.808594 44.710938 58.042969 C 44.140625 58.277344 43.558594 58.484375 42.96875 58.660156 C 42.378906 58.839844 41.78125 58.988281 41.175781 59.109375 C 40.570312 59.226562 39.960938 59.316406 39.34375 59.378906 C 38.730469 59.4375 38.117188 59.46875 37.5 59.46875 C 36.882812 59.46875 36.265625 59.4375 35.652344 59.378906 C 35.039062 59.316406 34.429688 59.226562 33.824219 59.109375 C 33.21875 58.988281 32.621094 58.839844 32.03125 58.660156 C 31.441406 58.484375 30.859375 58.277344 30.289062 58.042969 C 29.71875 57.808594 29.160156 57.542969 28.617188 57.253906 C 28.070312 56.964844 27.542969 56.652344 27.027344 56.308594 C 26.511719 55.96875 26.015625 55.605469 25.539062 55.214844 C 25.058594 54.824219 24.601562 54.414062 24.164062 53.980469 C 23.78125 53.605469 23.53125 53.160156 23.410156 52.636719 C 23.292969 52.117188 23.324219 51.605469 23.511719 51.105469 L 24.449219 48.605469 C 25.585938 49.542969 26.8125 50.347656 28.125 51.015625 C 28.128906 51.019531 28.132812 51.023438 28.140625 51.023438 C 29.152344 51.542969 30.199219 51.976562 31.285156 52.320312 C 31.292969 52.328125 31.308594 52.328125 31.316406 52.335938 C 33.328125 52.96875 35.390625 53.285156 37.5 53.285156 C 39.609375 53.285156 41.667969 52.96875 43.679688 52.335938 C 43.6875 52.328125 43.707031 52.328125 43.714844 52.320312 C 44.796875 51.976562 45.847656 51.542969 46.859375 51.023438 C 46.863281 51.023438 46.871094 51.019531 46.875 51.015625 C 48.1875 50.347656 49.414062 49.542969 50.550781 48.605469 L 51.488281 51.105469 C 51.671875 51.605469 51.707031 52.117188 51.585938 52.636719 C 51.46875 53.160156 51.21875 53.605469 50.835938 53.980469 Z M 51.667969 45.273438 L 51.667969 34.4375 C 51.667969 34.210938 51.589844 34.019531 51.429688 33.859375 C 51.269531 33.699219 51.078125 33.621094 50.851562 33.621094 L 46.546875 33.621094 C 46.320312 33.621094 46.128906 33.699219 45.96875 33.859375 C 45.8125 34.019531 45.730469 34.210938 45.730469 34.4375 L 45.730469 49.765625 C 45.234375 50.011719 44.726562 50.222656 44.203125 50.425781 L 44.203125 39.890625 C 44.203125 39.667969 44.125 39.472656 43.964844 39.3125 C 43.804688 39.15625 43.613281 39.074219 43.386719 39.074219 L 39.082031 39.074219 C 38.859375 39.074219 38.664062 39.15625 38.507812 39.3125 C 38.347656 39.472656 38.265625 39.667969 38.265625 39.890625 L 38.265625 51.636719 C 38.011719 51.644531 37.761719 51.652344 37.5 51.652344 C 37.238281 51.652344 36.984375 51.644531 36.730469 51.636719 L 36.730469 34.753906 C 36.730469 34.53125 36.652344 34.335938 36.492188 34.175781 C 36.332031 34.019531 36.140625 33.9375 35.914062 33.9375 L 31.609375 33.9375 C 31.386719 33.9375 31.191406 34.019531 31.035156 34.175781 C 30.875 34.335938 30.792969 34.53125 30.792969 34.753906 L 30.792969 50.425781 C 30.273438 50.222656 29.765625 50.011719 29.265625 49.765625 L 29.265625 41.003906 C 29.265625 40.777344 29.1875 40.585938 29.027344 40.425781 C 28.867188 40.265625 28.675781 40.1875 28.449219 40.1875 L 24.148438 40.1875 C 23.921875 40.1875 23.730469 40.265625 23.570312 40.425781 C 23.410156 40.585938 23.332031 40.777344 23.332031 41.003906 L 23.332031 45.273438 C 22.929688 44.820312 22.546875 44.351562 22.191406 43.863281 C 21.835938 43.371094 21.503906 42.867188 21.195312 42.347656 C 20.886719 41.828125 20.601562 41.292969 20.34375 40.746094 C 20.085938 40.195312 19.855469 39.636719 19.652344 39.070312 C 19.449219 38.5 19.273438 37.921875 19.125 37.332031 C 18.976562 36.746094 18.855469 36.15625 18.761719 35.554688 C 18.671875 34.957031 18.609375 34.355469 18.574219 33.753906 C 18.539062 33.148438 18.535156 32.542969 18.558594 31.9375 C 18.582031 31.335938 18.636719 30.730469 18.71875 30.132812 C 18.796875 29.53125 18.910156 28.9375 19.046875 28.347656 C 19.183594 27.757812 19.351562 27.179688 19.546875 26.605469 C 19.738281 26.03125 19.960938 25.46875 20.207031 24.917969 C 20.457031 24.363281 20.730469 23.824219 21.03125 23.300781 C 21.328125 22.773438 21.652344 22.265625 22.003906 21.769531 C 22.351562 21.273438 22.722656 20.796875 23.117188 20.335938 C 23.511719 19.878906 23.925781 19.4375 24.363281 19.019531 C 24.796875 18.601562 25.253906 18.203125 25.726562 17.828125 C 26.203125 17.449219 26.695312 17.097656 27.203125 16.769531 C 27.710938 16.441406 28.234375 16.136719 28.769531 15.859375 C 29.308594 15.578125 29.855469 15.328125 30.417969 15.101562 C 30.980469 14.875 31.550781 14.675781 32.128906 14.503906 C 32.710938 14.332031 33.296875 14.191406 33.894531 14.074219 C 34.488281 13.960938 35.085938 13.875 35.6875 13.816406 C 36.289062 13.757812 36.894531 13.730469 37.5 13.730469 C 38.105469 13.730469 38.707031 13.757812 39.3125 13.816406 C 39.914062 13.875 40.511719 13.960938 41.105469 14.074219 C 41.699219 14.191406 42.285156 14.332031 42.867188 14.503906 C 43.449219 14.675781 44.019531 14.875 44.582031 15.101562 C 45.140625 15.328125 45.691406 15.578125 46.226562 15.859375 C 46.765625 16.136719 47.289062 16.441406 47.796875 16.769531 C 48.304688 17.097656 48.796875 17.449219 49.269531 17.828125 C 49.746094 18.203125 50.199219 18.601562 50.636719 19.019531 C 51.074219 19.4375 51.488281 19.878906 51.882812 20.335938 C 52.277344 20.796875 52.648438 21.273438 52.996094 21.769531 C 53.34375 22.265625 53.667969 22.773438 53.96875 23.300781 C 54.269531 23.824219 54.542969 24.363281 54.789062 24.917969 C 55.039062 25.46875 55.257812 26.03125 55.453125 26.605469 C 55.648438 27.179688 55.8125 27.757812 55.953125 28.347656 C 56.089844 28.9375 56.199219 29.53125 56.28125 30.132812 C 56.363281 30.730469 56.414062 31.335938 56.4375 31.9375 C 56.460938 32.542969 56.457031 33.148438 56.421875 33.753906 C 56.390625 34.355469 56.328125 34.957031 56.234375 35.554688 C 56.144531 36.15625 56.023438 36.746094 55.875 37.332031 C 55.726562 37.921875 55.550781 38.5 55.34375 39.070312 C 55.140625 39.636719 54.910156 40.195312 54.652344 40.746094 C 54.394531 41.292969 54.113281 41.828125 53.804688 42.347656 C 53.496094 42.867188 53.164062 43.371094 52.804688 43.863281 C 52.449219 44.351562 52.070312 44.820312 51.667969 45.273438 Z M 51.667969 45.273438 " fill-opacity="1" fill-rule="nonzero"/><path fill="#ffffff" d="M 47.078125 18.535156 C 46.765625 18.527344 46.460938 18.578125 46.167969 18.691406 C 45.875 18.800781 45.617188 18.964844 45.386719 19.179688 C 45.160156 19.394531 44.980469 19.644531 44.851562 19.933594 C 44.722656 20.21875 44.65625 20.519531 44.644531 20.832031 C 44.644531 21.328125 44.800781 21.769531 45.101562 22.164062 L 40.398438 28.089844 C 40.015625 27.9375 39.617188 27.882812 39.207031 27.925781 C 38.792969 27.964844 38.417969 28.101562 38.070312 28.328125 L 34.460938 25.984375 C 34.511719 25.804688 34.539062 25.617188 34.542969 25.429688 C 34.523438 25.117188 34.449219 24.820312 34.320312 24.539062 C 34.1875 24.257812 34.007812 24.007812 33.78125 23.792969 C 33.554688 23.582031 33.296875 23.414062 33.007812 23.300781 C 32.71875 23.1875 32.417969 23.128906 32.105469 23.128906 C 31.792969 23.128906 31.492188 23.1875 31.203125 23.300781 C 30.914062 23.414062 30.65625 23.582031 30.429688 23.792969 C 30.203125 24.007812 30.023438 24.257812 29.890625 24.539062 C 29.761719 24.820312 29.683594 25.117188 29.667969 25.429688 C 29.671875 25.824219 29.777344 26.195312 29.984375 26.53125 L 25.125 31.675781 C 24.835938 31.570312 24.539062 31.515625 24.230469 31.511719 C 23.925781 31.53125 23.640625 31.605469 23.371094 31.734375 C 23.097656 31.867188 22.859375 32.042969 22.660156 32.269531 C 22.457031 32.492188 22.304688 32.746094 22.203125 33.027344 C 22.097656 33.3125 22.054688 33.605469 22.066406 33.90625 C 22.078125 34.207031 22.148438 34.496094 22.273438 34.769531 C 22.398438 35.042969 22.570312 35.285156 22.789062 35.488281 C 23.011719 35.695312 23.261719 35.855469 23.542969 35.960938 C 23.824219 36.070312 24.113281 36.121094 24.417969 36.113281 C 24.71875 36.109375 25.007812 36.042969 25.285156 35.925781 C 25.558594 35.804688 25.804688 35.636719 26.015625 35.421875 C 26.226562 35.207031 26.386719 34.957031 26.5 34.679688 C 26.613281 34.398438 26.671875 34.109375 26.671875 33.808594 C 26.664062 33.425781 26.566406 33.070312 26.375 32.738281 L 31.25 27.570312 C 31.625 27.707031 32.011719 27.753906 32.40625 27.707031 C 32.800781 27.660156 33.164062 27.527344 33.496094 27.308594 L 37.105469 29.644531 C 37.054688 29.828125 37.027344 30.015625 37.027344 30.207031 C 37.042969 30.515625 37.117188 30.8125 37.25 31.09375 C 37.382812 31.375 37.558594 31.625 37.785156 31.839844 C 38.011719 32.050781 38.269531 32.214844 38.558594 32.332031 C 38.847656 32.445312 39.148438 32.503906 39.460938 32.503906 C 39.769531 32.503906 40.070312 32.445312 40.359375 32.332031 C 40.648438 32.214844 40.90625 32.050781 41.132812 31.839844 C 41.359375 31.625 41.539062 31.375 41.667969 31.09375 C 41.800781 30.8125 41.875 30.515625 41.894531 30.207031 C 41.890625 29.839844 41.800781 29.496094 41.625 29.175781 L 46.480469 23.050781 C 46.679688 23.097656 46.878906 23.121094 47.078125 23.125 C 47.390625 23.132812 47.695312 23.082031 47.988281 22.972656 C 48.28125 22.859375 48.542969 22.695312 48.769531 22.480469 C 48.996094 22.265625 49.175781 22.015625 49.304688 21.730469 C 49.433594 21.445312 49.503906 21.144531 49.511719 20.832031 C 49.503906 20.519531 49.433594 20.21875 49.304688 19.933594 C 49.175781 19.644531 48.996094 19.394531 48.769531 19.179688 C 48.542969 18.964844 48.28125 18.800781 47.988281 18.691406 C 47.695312 18.578125 47.390625 18.527344 47.078125 18.535156 Z M 47.078125 18.535156 " fill-opacity="1" fill-rule="nonzero"/></svg>