<svg xmlns="http://www.w3.org/2000/svg" xmlns:xlink="http://www.w3.org/1999/xlink" width="100" zoomAndPan="magnify" viewBox="0 0 75 74.999997" height="100" preserveAspectRatio="xMidYMid meet" version="1.0"><defs><clipPath id="fe3bf95d31"><path d="M 9.003906 9.539062 L 66 9.539062 L 66 65.789062 L 9.003906 65.789062 Z M 9.003906 9.539062 " clip-rule="nonzero"/></clipPath></defs><g clip-path="url(#fe3bf95d31)"><path fill="#ffffff" d="M 24.066406 55.484375 L 13.300781 55.484375 C 10.9375 55.484375 9.003906 53.550781 9.003906 51.1875 L 9.003906 27.957031 C 9.003906 25.597656 10.9375 23.660156 13.300781 23.660156 L 50.472656 23.660156 C 52.835938 23.660156 54.769531 25.597656 54.769531 27.957031 L 54.769531 51.1875 C 54.769531 53.550781 52.835938 55.484375 50.472656 55.484375 L 39.710938 55.484375 L 39.710938 59.015625 L 43.929688 59.015625 C 46.070312 59.015625 47.730469 60.523438 47.730469 62.230469 L 47.730469 64.535156 C 47.730469 65.039062 47.316406 65.453125 46.808594 65.453125 L 16.964844 65.453125 C 16.457031 65.453125 16.046875 65.039062 16.046875 64.535156 L 16.046875 62.230469 C 16.046875 60.523438 17.707031 59.015625 19.84375 59.015625 L 24.066406 59.015625 Z M 17.882812 63.613281 L 45.890625 63.613281 L 45.890625 62.230469 C 45.890625 61.410156 44.960938 60.851562 43.929688 60.851562 L 19.84375 60.851562 C 18.816406 60.851562 17.882812 61.410156 17.882812 62.230469 Z M 13.300781 25.5 C 11.949219 25.5 10.84375 26.605469 10.84375 27.957031 L 10.84375 51.1875 C 10.84375 52.539062 11.949219 53.648438 13.300781 53.648438 L 50.472656 53.648438 C 51.824219 53.648438 52.929688 52.539062 52.929688 51.1875 L 52.929688 27.957031 C 52.929688 26.605469 51.824219 25.5 50.472656 25.5 Z M 13.21875 26.488281 L 50.558594 26.488281 C 51.316406 26.488281 51.945312 27.105469 51.945312 27.875 L 51.945312 51.253906 C 51.945312 51.757812 51.535156 52.171875 51.027344 52.171875 L 12.746094 52.171875 C 12.238281 52.171875 11.828125 51.757812 11.828125 51.253906 L 11.828125 27.875 C 11.828125 27.109375 12.449219 26.488281 13.21875 26.488281 Z M 13.664062 28.328125 L 13.664062 50.332031 L 50.105469 50.332031 L 50.105469 28.328125 Z M 47.414062 43.441406 L 32.628906 43.441406 C 32.121094 43.441406 31.707031 43.03125 31.707031 42.523438 L 31.707031 32.425781 C 31.707031 31.917969 32.121094 31.507812 32.628906 31.507812 L 47.414062 31.507812 C 47.921875 31.507812 48.332031 31.917969 48.332031 32.425781 L 48.332031 42.523438 C 48.332031 43.03125 47.921875 43.441406 47.414062 43.441406 Z M 45.136719 41.601562 L 46.496094 41.601562 C 46.496094 41.601562 46.496094 33.34375 46.496094 33.34375 L 33.546875 33.34375 L 33.546875 41.601562 L 34.90625 41.601562 L 34.90625 40.835938 C 34.90625 40.328125 35.316406 39.917969 35.824219 39.917969 C 36.332031 39.917969 36.746094 40.328125 36.746094 40.835938 L 36.746094 41.601562 L 37.703125 41.601562 L 37.703125 36.652344 C 37.703125 36.144531 38.113281 35.734375 38.621094 35.734375 C 39.128906 35.734375 39.542969 36.144531 39.542969 36.652344 L 39.542969 41.601562 L 40.5 41.601562 L 40.5 38.453125 C 40.5 37.945312 40.910156 37.53125 41.417969 37.53125 C 41.925781 37.53125 42.339844 37.945312 42.339844 38.453125 L 42.339844 41.601562 L 43.296875 41.601562 L 43.296875 36.652344 C 43.296875 36.144531 43.707031 35.734375 44.214844 35.734375 C 44.722656 35.734375 45.136719 36.144531 45.136719 36.652344 Z M 32.628906 47.152344 C 32.121094 47.152344 31.707031 46.742188 31.707031 46.234375 C 31.707031 45.726562 32.121094 45.316406 32.628906 45.316406 L 47.414062 45.316406 C 47.921875 45.316406 48.332031 45.726562 48.332031 46.234375 C 48.332031 46.742188 47.921875 47.152344 47.414062 47.152344 Z M 22.628906 31.304688 C 26.699219 31.304688 30.003906 34.609375 30.003906 38.683594 C 30.003906 42.757812 26.699219 46.058594 22.628906 46.058594 C 18.554688 46.058594 15.25 42.757812 15.25 38.683594 C 15.25 34.609375 18.554688 31.304688 22.628906 31.304688 Z M 28.089844 37.765625 C 27.703125 35.441406 25.871094 33.609375 23.546875 33.21875 L 23.546875 37.765625 Z M 21.707031 33.21875 C 19.085938 33.65625 17.089844 35.9375 17.089844 38.683594 C 17.089844 41.742188 19.566406 44.222656 22.628906 44.222656 C 23.324219 44.222656 23.988281 44.09375 24.601562 43.859375 L 21.835938 39.148438 C 21.753906 39.007812 21.707031 38.847656 21.707031 38.683594 Z M 26.1875 42.925781 C 27.171875 42.097656 27.867188 40.929688 28.089844 39.605469 L 24.234375 39.601562 Z M 37.871094 55.484375 L 25.902344 55.484375 L 25.902344 59.015625 L 37.871094 59.015625 Z M 13.566406 16.699219 C 12 16.289062 10.84375 14.867188 10.84375 13.175781 C 10.84375 11.164062 12.476562 9.535156 14.484375 9.535156 C 16.496094 9.535156 18.125 11.164062 18.125 13.175781 C 18.125 14.867188 16.96875 16.289062 15.40625 16.699219 L 15.40625 21.675781 C 15.40625 22.183594 14.992188 22.597656 14.484375 22.597656 C 13.976562 22.597656 13.566406 22.183594 13.566406 21.675781 Z M 14.484375 14.976562 C 15.480469 14.976562 16.289062 14.167969 16.289062 13.175781 C 16.289062 12.179688 15.480469 11.371094 14.484375 11.371094 C 13.492188 11.371094 12.683594 12.179688 12.683594 13.175781 C 12.683594 14.167969 13.492188 14.976562 14.484375 14.976562 Z M 25.167969 16.699219 C 23.601562 16.289062 22.445312 14.867188 22.445312 13.175781 C 22.445312 11.164062 24.078125 9.535156 26.085938 9.535156 C 28.09375 9.535156 29.726562 11.164062 29.726562 13.175781 C 29.726562 14.867188 28.570312 16.289062 27.003906 16.699219 L 27.003906 21.675781 C 27.003906 22.183594 26.59375 22.597656 26.085938 22.597656 C 25.578125 22.597656 25.167969 22.183594 25.167969 21.675781 Z M 26.085938 14.976562 C 27.082031 14.976562 27.886719 14.167969 27.886719 13.175781 C 27.886719 12.179688 27.082031 11.371094 26.085938 11.371094 C 25.089844 11.371094 24.285156 12.179688 24.285156 13.175781 C 24.285156 14.167969 25.089844 14.976562 26.085938 14.976562 Z M 36.765625 16.699219 C 35.203125 16.289062 34.046875 14.867188 34.046875 13.175781 C 34.046875 11.164062 35.675781 9.535156 37.6875 9.535156 C 39.695312 9.535156 41.328125 11.164062 41.328125 13.175781 C 41.328125 14.867188 40.167969 16.289062 38.605469 16.699219 L 38.605469 21.675781 C 38.605469 22.183594 38.191406 22.597656 37.6875 22.597656 C 37.179688 22.597656 36.765625 22.183594 36.765625 21.675781 Z M 37.6875 14.976562 C 38.679688 14.976562 39.488281 14.167969 39.488281 13.175781 C 39.488281 12.179688 38.679688 11.371094 37.6875 11.371094 C 36.691406 11.371094 35.882812 12.179688 35.882812 13.175781 C 35.882812 14.167969 36.691406 14.976562 37.6875 14.976562 Z M 48.367188 16.699219 C 46.800781 16.289062 45.644531 14.867188 45.644531 13.175781 C 45.644531 11.164062 47.277344 9.535156 49.285156 9.535156 C 51.296875 9.535156 52.925781 11.164062 52.925781 13.175781 C 52.925781 14.867188 51.769531 16.289062 50.207031 16.699219 L 50.207031 21.675781 C 50.207031 22.183594 49.792969 22.597656 49.285156 22.597656 C 48.777344 22.597656 48.367188 22.183594 48.367188 21.675781 Z M 49.285156 14.976562 C 50.28125 14.976562 51.089844 14.167969 51.089844 13.175781 C 51.089844 12.179688 50.28125 11.371094 49.285156 11.371094 C 48.292969 11.371094 47.484375 12.179688 47.484375 13.175781 C 47.484375 14.167969 48.292969 14.976562 49.285156 14.976562 Z M 58.828125 28.414062 L 56.945312 28.414062 C 56.4375 28.414062 56.023438 28.003906 56.023438 27.496094 C 56.023438 26.988281 56.4375 26.578125 56.945312 26.578125 L 58.828125 26.578125 C 59.234375 25.011719 60.660156 23.855469 62.351562 23.855469 C 64.359375 23.855469 65.992188 25.488281 65.992188 27.496094 C 65.992188 29.503906 64.359375 31.136719 62.351562 31.136719 C 60.660156 31.136719 59.234375 29.980469 58.828125 28.414062 Z M 60.550781 27.496094 C 60.550781 28.488281 61.355469 29.296875 62.351562 29.296875 C 63.347656 29.296875 64.152344 28.488281 64.152344 27.496094 C 64.152344 26.5 63.347656 25.695312 62.351562 25.695312 C 61.355469 25.695312 60.550781 26.5 60.550781 27.496094 Z M 58.828125 40.015625 L 56.945312 40.015625 C 56.4375 40.015625 56.023438 39.601562 56.023438 39.09375 C 56.023438 38.589844 56.4375 38.175781 56.945312 38.175781 L 58.828125 38.175781 C 59.234375 36.613281 60.660156 35.457031 62.351562 35.457031 C 64.359375 35.457031 65.992188 37.085938 65.992188 39.09375 C 65.992188 41.105469 64.359375 42.734375 62.351562 42.734375 C 60.660156 42.734375 59.234375 41.578125 58.828125 40.015625 Z M 60.550781 39.09375 C 60.550781 40.089844 61.355469 40.898438 62.351562 40.898438 C 63.347656 40.898438 64.152344 40.089844 64.152344 39.09375 C 64.152344 38.101562 63.347656 37.292969 62.351562 37.292969 C 61.355469 37.292969 60.550781 38.101562 60.550781 39.09375 Z M 58.828125 51.613281 L 56.945312 51.613281 C 56.4375 51.613281 56.023438 51.203125 56.023438 50.695312 C 56.023438 50.1875 56.4375 49.777344 56.945312 49.777344 L 58.828125 49.777344 C 59.234375 48.210938 60.660156 47.054688 62.351562 47.054688 C 64.359375 47.054688 65.992188 48.6875 65.992188 50.695312 C 65.992188 52.703125 64.359375 54.335938 62.351562 54.335938 C 60.660156 54.335938 59.234375 53.179688 58.828125 51.613281 Z M 60.550781 50.695312 C 60.550781 51.691406 61.355469 52.496094 62.351562 52.496094 C 63.347656 52.496094 64.152344 51.691406 64.152344 50.695312 C 64.152344 49.703125 63.347656 48.894531 62.351562 48.894531 C 61.355469 48.894531 60.550781 49.703125 60.550781 50.695312 Z M 60.550781 50.695312 " fill-opacity="1" fill-rule="evenodd"/></g></svg>