<svg xmlns="http://www.w3.org/2000/svg" xmlns:xlink="http://www.w3.org/1999/xlink" width="100" zoomAndPan="magnify" viewBox="0 0 75 74.999997" height="100" preserveAspectRatio="xMidYMid meet" version="1.0"><defs><clipPath id="46472afabc"><path d="M 8.390625 8.429688 L 50 8.429688 L 50 50 L 8.390625 50 Z M 8.390625 8.429688 " clip-rule="nonzero"/></clipPath><clipPath id="0205c839bc"><path d="M 43 43 L 66.890625 43 L 66.890625 66.929688 L 43 66.929688 Z M 43 43 " clip-rule="nonzero"/></clipPath></defs><path fill="#ef1c24" d="M 37.074219 27.871094 C 35.347656 27.871094 33.945312 26.464844 33.945312 24.742188 C 33.945312 23.019531 35.347656 21.617188 37.074219 21.617188 C 38.796875 21.617188 40.203125 23.019531 40.203125 24.742188 C 40.203125 26.464844 38.796875 27.871094 37.074219 27.871094 Z M 37.074219 23.433594 C 36.351562 23.433594 35.761719 24.019531 35.761719 24.742188 C 35.761719 25.464844 36.351562 26.050781 37.074219 26.050781 C 37.796875 26.050781 38.382812 25.464844 38.382812 24.742188 C 38.382812 24.019531 37.796875 23.433594 37.074219 23.433594 Z M 37.074219 23.433594 " fill-opacity="1" fill-rule="nonzero"/><path fill="#ef1c24" d="M 42.070312 37.269531 L 34.761719 37.269531 C 34.257812 37.269531 33.851562 36.863281 33.851562 36.359375 C 33.851562 35.859375 34.257812 35.449219 34.761719 35.449219 L 42.070312 35.449219 C 42.570312 35.449219 42.976562 35.859375 42.976562 36.359375 C 42.976562 36.863281 42.570312 37.269531 42.070312 37.269531 Z M 42.070312 37.269531 " fill-opacity="1" fill-rule="nonzero"/><path fill="#ef1c24" d="M 42.878906 35.617188 C 42.480469 35.617188 42.117188 35.355469 42.003906 34.953125 C 41.382812 32.75 39.355469 31.207031 37.074219 31.207031 C 35.136719 31.207031 33.386719 32.285156 32.507812 34.023438 C 32.28125 34.472656 31.734375 34.652344 31.285156 34.425781 C 30.835938 34.199219 30.65625 33.652344 30.882812 33.203125 C 31.457031 32.074219 32.324219 31.121094 33.394531 30.449219 C 34.496094 29.753906 35.769531 29.390625 37.074219 29.390625 C 38.617188 29.390625 40.078125 29.886719 41.296875 30.828125 C 42.480469 31.742188 43.351562 33.03125 43.753906 34.464844 C 43.890625 34.945312 43.605469 35.449219 43.125 35.585938 C 43.042969 35.609375 42.957031 35.617188 42.878906 35.617188 Z M 42.878906 35.617188 " fill-opacity="1" fill-rule="nonzero"/><path fill="#ef1c24" d="M 20.664062 27.871094 C 18.9375 27.871094 17.535156 26.464844 17.535156 24.742188 C 17.535156 23.019531 18.9375 21.617188 20.664062 21.617188 C 22.386719 21.617188 23.789062 23.019531 23.789062 24.742188 C 23.789062 26.464844 22.386719 27.871094 20.664062 27.871094 Z M 20.664062 23.433594 C 19.941406 23.433594 19.351562 24.019531 19.351562 24.742188 C 19.351562 25.464844 19.941406 26.050781 20.664062 26.050781 C 21.386719 26.050781 21.972656 25.464844 21.972656 24.742188 C 21.972656 24.019531 21.386719 23.433594 20.664062 23.433594 Z M 20.664062 23.433594 " fill-opacity="1" fill-rule="nonzero"/><path fill="#ef1c24" d="M 22.976562 37.269531 L 15.667969 37.269531 C 15.164062 37.269531 14.757812 36.863281 14.757812 36.359375 C 14.757812 35.859375 15.164062 35.449219 15.667969 35.449219 L 22.976562 35.449219 C 23.476562 35.449219 23.882812 35.859375 23.882812 36.359375 C 23.882812 36.863281 23.476562 37.269531 22.976562 37.269531 Z M 22.976562 37.269531 " fill-opacity="1" fill-rule="nonzero"/><path fill="#ef1c24" d="M 14.859375 35.617188 C 14.777344 35.617188 14.695312 35.609375 14.613281 35.585938 C 14.128906 35.449219 13.847656 34.945312 13.984375 34.464844 C 14.386719 33.03125 15.257812 31.742188 16.4375 30.828125 C 17.660156 29.886719 19.121094 29.390625 20.664062 29.390625 C 21.96875 29.390625 23.242188 29.753906 24.34375 30.449219 C 25.410156 31.121094 26.28125 32.074219 26.851562 33.203125 C 27.078125 33.652344 26.898438 34.199219 26.449219 34.425781 C 26.003906 34.652344 25.457031 34.472656 25.230469 34.023438 C 24.347656 32.285156 22.597656 31.207031 20.664062 31.207031 C 18.378906 31.207031 16.351562 32.75 15.734375 34.953125 C 15.621094 35.355469 15.257812 35.617188 14.859375 35.617188 Z M 14.859375 35.617188 " fill-opacity="1" fill-rule="nonzero"/><path fill="#ef1c24" d="M 28.867188 30.113281 C 26.972656 30.113281 25.429688 28.570312 25.429688 26.675781 C 25.429688 24.785156 26.972656 23.242188 28.867188 23.242188 C 30.761719 23.242188 32.304688 24.785156 32.304688 26.675781 C 32.304688 28.570312 30.761719 30.113281 28.867188 30.113281 Z M 28.867188 25.0625 C 27.976562 25.0625 27.25 25.785156 27.25 26.675781 C 27.25 27.570312 27.976562 28.292969 28.867188 28.292969 C 29.761719 28.292969 30.488281 27.570312 30.488281 26.675781 C 30.488281 25.785156 29.761719 25.0625 28.867188 25.0625 Z M 28.867188 25.0625 " fill-opacity="1" fill-rule="nonzero"/><path fill="#ef1c24" d="M 35.734375 43.308594 C 35.234375 43.308594 34.828125 42.902344 34.828125 42.402344 L 34.828125 39.90625 C 34.828125 36.601562 32.152344 33.914062 28.867188 33.914062 C 25.582031 33.914062 22.910156 36.601562 22.910156 39.90625 L 22.910156 42.402344 C 22.910156 42.902344 22.503906 43.308594 22 43.308594 C 21.5 43.308594 21.089844 42.902344 21.089844 42.402344 L 21.089844 39.90625 C 21.089844 35.597656 24.578125 32.09375 28.867188 32.09375 C 33.15625 32.09375 36.644531 35.597656 36.644531 39.90625 L 36.644531 42.402344 C 36.644531 42.902344 36.238281 43.308594 35.734375 43.308594 Z M 35.734375 43.308594 " fill-opacity="1" fill-rule="nonzero"/><path fill="#ef1c24" d="M 28.867188 44.949219 C 26.78125 44.949219 24.746094 44.550781 22.816406 43.769531 C 20.820312 42.960938 19.03125 41.773438 17.496094 40.242188 C 15.960938 38.707031 14.773438 36.917969 13.964844 34.925781 C 13.183594 33 12.785156 30.964844 12.785156 28.878906 C 12.785156 26.792969 13.183594 24.757812 13.964844 22.832031 C 14.773438 20.835938 15.960938 19.050781 17.496094 17.515625 C 19.03125 15.980469 20.820312 14.792969 22.816406 13.984375 C 24.746094 13.203125 26.78125 12.808594 28.867188 12.808594 C 30.957031 12.808594 32.992188 13.203125 34.917969 13.984375 C 36.914062 14.792969 38.703125 15.980469 40.238281 17.515625 C 41.773438 19.050781 42.964844 20.835938 43.773438 22.832031 C 44.554688 24.757812 44.949219 26.792969 44.949219 28.878906 C 44.949219 30.964844 44.554688 33 43.773438 34.925781 C 42.964844 36.917969 41.773438 38.707031 40.238281 40.242188 C 38.703125 41.773438 36.914062 42.960938 34.917969 43.769531 C 32.992188 44.550781 30.957031 44.949219 28.867188 44.949219 Z M 28.867188 14.632812 C 25.214844 14.632812 21.5625 16.023438 18.78125 18.800781 C 16.089844 21.492188 14.605469 25.070312 14.605469 28.878906 C 14.605469 32.683594 16.089844 36.261719 18.78125 38.957031 C 24.34375 44.511719 33.394531 44.511719 38.953125 38.957031 C 41.648438 36.261719 43.132812 32.683594 43.132812 28.878906 C 43.132812 25.070312 41.648438 21.492188 38.953125 18.800781 C 36.171875 16.023438 32.519531 14.632812 28.867188 14.632812 Z M 28.867188 14.632812 " fill-opacity="1" fill-rule="nonzero"/><g clip-path="url(#46472afabc)"><path fill="#ef1c24" d="M 28.867188 49.328125 C 26.210938 49.328125 23.621094 48.824219 21.167969 47.832031 C 18.628906 46.800781 16.351562 45.289062 14.398438 43.339844 C 12.445312 41.386719 10.929688 39.109375 9.902344 36.574219 C 8.90625 34.121094 8.402344 31.535156 8.402344 28.878906 C 8.402344 26.222656 8.90625 23.632812 9.902344 21.183594 C 10.929688 18.644531 12.445312 16.371094 14.398438 14.417969 C 16.351562 12.464844 18.628906 10.957031 21.167969 9.925781 C 23.621094 8.933594 26.210938 8.429688 28.867188 8.429688 C 31.527344 8.429688 34.117188 8.933594 36.570312 9.925781 C 39.109375 10.957031 41.386719 12.464844 43.339844 14.417969 C 45.292969 16.371094 46.804688 18.644531 47.835938 21.183594 C 48.828125 23.632812 49.332031 26.222656 49.332031 28.878906 C 49.332031 31.535156 48.828125 34.121094 47.835938 36.574219 C 46.804688 39.109375 45.292969 41.386719 43.339844 43.339844 C 41.386719 45.289062 39.109375 46.800781 36.570312 47.832031 C 34.117188 48.824219 31.527344 49.328125 28.867188 49.328125 Z M 28.867188 10.253906 C 24.09375 10.253906 19.316406 12.070312 15.683594 15.703125 C 12.160156 19.222656 10.222656 23.902344 10.222656 28.878906 C 10.222656 33.855469 12.160156 38.535156 15.683594 42.050781 C 22.953125 49.316406 34.785156 49.316406 42.054688 42.050781 C 45.574219 38.535156 47.515625 33.855469 47.515625 28.878906 C 47.515625 23.902344 45.574219 19.222656 42.054688 15.703125 C 38.417969 12.070312 33.644531 10.253906 28.867188 10.253906 Z M 28.867188 10.253906 " fill-opacity="1" fill-rule="nonzero"/></g><path fill="#ef1c24" d="M 45.621094 50.015625 C 45.390625 50.015625 45.15625 49.925781 44.980469 49.75 L 40.308594 45.082031 C 39.953125 44.726562 39.953125 44.152344 40.308594 43.796875 C 40.664062 43.441406 41.238281 43.441406 41.59375 43.796875 L 45.621094 47.820312 L 47.824219 45.617188 L 43.800781 41.59375 C 43.445312 41.238281 43.445312 40.664062 43.796875 40.308594 C 44.152344 39.953125 44.730469 39.953125 45.085938 40.308594 L 49.753906 44.976562 C 49.925781 45.144531 50.019531 45.375 50.019531 45.617188 C 50.019531 45.859375 49.925781 46.089844 49.753906 46.261719 L 46.265625 49.75 C 46.085938 49.925781 45.855469 50.015625 45.621094 50.015625 Z M 45.621094 50.015625 " fill-opacity="1" fill-rule="nonzero"/><g clip-path="url(#0205c839bc)"><path fill="#ef1c24" d="M 60.757812 66.566406 C 59.261719 66.566406 57.769531 66 56.632812 64.863281 L 44.957031 53.195312 C 44.328125 52.566406 43.980469 51.730469 43.980469 50.839844 C 43.980469 49.949219 44.328125 49.113281 44.957031 48.484375 L 48.488281 44.953125 C 49.789062 43.65625 51.90625 43.65625 53.207031 44.953125 L 64.878906 56.621094 C 65.980469 57.71875 66.589844 59.183594 66.589844 60.742188 C 66.589844 62.296875 65.980469 63.761719 64.878906 64.863281 C 63.742188 66 62.25 66.566406 60.757812 66.566406 Z M 50.847656 45.796875 C 50.460938 45.796875 50.070312 45.945312 49.773438 46.242188 L 46.242188 49.769531 C 45.957031 50.054688 45.800781 50.433594 45.800781 50.839844 C 45.800781 51.242188 45.957031 51.625 46.242188 51.910156 L 57.917969 63.574219 C 59.484375 65.140625 62.03125 65.140625 63.59375 63.574219 C 64.351562 62.820312 64.769531 61.8125 64.769531 60.742188 C 64.769531 59.671875 64.351562 58.664062 63.59375 57.90625 L 51.917969 46.242188 C 51.625 45.945312 51.234375 45.796875 50.847656 45.796875 Z M 50.847656 45.796875 " fill-opacity="1" fill-rule="nonzero"/></g><path fill="#ef1c24" d="M 55.652344 63.507812 C 55.421875 63.507812 55.1875 63.417969 55.011719 63.242188 L 52.46875 60.703125 C 52.296875 60.53125 52.203125 60.300781 52.203125 60.058594 C 52.203125 59.816406 52.296875 59.585938 52.46875 59.414062 L 59.429688 52.457031 C 59.785156 52.105469 60.359375 52.105469 60.714844 52.457031 L 63.257812 55 C 63.429688 55.167969 63.523438 55.402344 63.523438 55.640625 C 63.523438 55.882812 63.429688 56.113281 63.257812 56.285156 L 56.296875 63.242188 C 56.117188 63.417969 55.886719 63.507812 55.652344 63.507812 Z M 54.398438 60.058594 L 55.652344 61.3125 L 61.328125 55.640625 L 60.074219 54.386719 Z M 54.398438 60.058594 " fill-opacity="1" fill-rule="nonzero"/></svg>