<svg xmlns="http://www.w3.org/2000/svg" xmlns:xlink="http://www.w3.org/1999/xlink" width="100" zoomAndPan="magnify" viewBox="0 0 75 74.999997" height="100" preserveAspectRatio="xMidYMid meet" version="1.0"><defs><clipPath id="f71c8729d7"><path d="M 8.023438 8 L 39 8 L 39 67.5 L 8.023438 67.5 Z M 8.023438 8 " clip-rule="nonzero"/></clipPath><clipPath id="7a28908657"><path d="M 40 49 L 47 49 L 47 67.5 L 40 67.5 Z M 40 49 " clip-rule="nonzero"/></clipPath></defs><path fill="#ef1c24" d="M 17.164062 36.113281 L 13.925781 36.113281 C 13.347656 36.113281 12.882812 35.644531 12.882812 35.070312 C 12.882812 34.492188 13.347656 34.023438 13.925781 34.023438 L 17.164062 34.023438 C 17.738281 34.023438 18.207031 34.492188 18.207031 35.070312 C 18.207031 35.644531 17.738281 36.113281 17.164062 36.113281 Z M 17.164062 36.113281 " fill-opacity="1" fill-rule="nonzero"/><path fill="#ef1c24" d="M 25.285156 44.171875 L 24.058594 44.171875 C 23.484375 44.171875 23.015625 43.703125 23.015625 43.128906 C 23.015625 42.550781 23.484375 42.085938 24.058594 42.085938 L 25.285156 42.085938 C 25.863281 42.085938 26.332031 42.550781 26.332031 43.128906 C 26.332031 43.703125 25.863281 44.171875 25.285156 44.171875 Z M 25.285156 44.171875 " fill-opacity="1" fill-rule="nonzero"/><g clip-path="url(#f71c8729d7)"><path fill="#ef1c24" d="M 37.363281 67.460938 C 31.480469 67.460938 20.765625 67.460938 19.519531 59.859375 C 16.207031 60.152344 12.71875 58.417969 10.875 55.433594 C 9.289062 52.859375 9.324219 49.992188 10.914062 47.585938 C 8.992188 45.640625 8.085938 42.996094 8.472656 40.328125 C 8.824219 37.910156 10.214844 35.855469 12.261719 34.652344 C 10.957031 31.542969 10.972656 28.195312 12.332031 25.332031 C 13.78125 22.277344 16.59375 20.101562 20.289062 19.152344 C 20.589844 17.917969 21.226562 16.949219 22.191406 16.257812 C 23.75 15.144531 25.773438 15.097656 26.9375 15.1875 C 29.761719 7.503906 37.5 9.027344 37.578125 9.046875 C 38.0625 9.148438 38.40625 9.574219 38.40625 10.066406 L 38.40625 25.730469 C 38.40625 26.308594 37.9375 26.773438 37.363281 26.773438 C 36.785156 26.773438 36.320312 26.308594 36.320312 25.730469 L 36.320312 10.992188 C 34.496094 10.894531 30.246094 11.246094 28.660156 16.625 C 28.507812 17.144531 27.976562 17.457031 27.449219 17.347656 C 27.425781 17.34375 24.925781 16.859375 23.398438 17.960938 C 22.734375 18.4375 22.351562 19.152344 22.222656 20.144531 C 22.167969 20.585938 21.839844 20.941406 21.402344 21.03125 C 18.019531 21.746094 15.46875 23.589844 14.214844 26.226562 C 12.996094 28.792969 13.121094 31.863281 14.5625 34.652344 C 14.695312 34.914062 14.714844 35.214844 14.613281 35.488281 C 14.515625 35.761719 14.304688 35.984375 14.035156 36.09375 C 12.113281 36.894531 10.839844 38.546875 10.535156 40.628906 C 10.207031 42.886719 11.121094 45.132812 12.976562 46.644531 C 13.195312 46.824219 13.332031 47.082031 13.359375 47.359375 C 13.382812 47.640625 13.292969 47.917969 13.113281 48.132812 C 11.53125 49.984375 11.363281 52.246094 12.652344 54.335938 C 14.019531 56.5625 17.054688 58.414062 20.199219 57.636719 C 20.503906 57.566406 20.828125 57.628906 21.078125 57.820312 C 21.328125 58.011719 21.480469 58.304688 21.492188 58.617188 C 21.675781 64.015625 27.511719 65.28125 36.320312 65.367188 L 36.320312 50.753906 C 36.320312 50.175781 36.785156 49.710938 37.363281 49.710938 C 37.9375 49.710938 38.40625 50.175781 38.40625 50.753906 L 38.40625 66.417969 C 38.40625 66.992188 37.9375 67.460938 37.363281 67.460938 Z M 37.363281 67.460938 " fill-opacity="1" fill-rule="nonzero"/></g><path fill="#ef1c24" d="M 43.449219 9.023438 C 41.664062 9.023438 40.210938 10.476562 40.210938 12.261719 C 40.210938 13.675781 41.132812 14.871094 42.40625 15.308594 L 42.40625 26.136719 C 42.40625 26.714844 42.871094 27.179688 43.449219 27.179688 C 44.027344 27.179688 44.492188 26.714844 44.492188 26.136719 L 44.492188 15.308594 C 45.761719 14.871094 46.683594 13.679688 46.683594 12.261719 C 46.683594 10.476562 45.234375 9.023438 43.449219 9.023438 Z M 43.449219 9.023438 " fill-opacity="1" fill-rule="nonzero"/><g clip-path="url(#7a28908657)"><path fill="#ef1c24" d="M 44.492188 61.175781 L 44.492188 50.59375 C 44.492188 50.019531 44.027344 49.550781 43.449219 49.550781 C 42.871094 49.550781 42.40625 50.019531 42.40625 50.59375 L 42.40625 61.175781 C 41.132812 61.609375 40.210938 62.804688 40.210938 64.222656 C 40.210938 66.007812 41.664062 67.460938 43.449219 67.460938 C 45.234375 67.460938 46.683594 66.007812 46.683594 64.222656 C 46.683594 62.804688 45.761719 61.613281 44.492188 61.175781 Z M 44.492188 61.175781 " fill-opacity="1" fill-rule="nonzero"/></g><path fill="#ef1c24" d="M 63.636719 35.003906 C 62.21875 35.003906 61.023438 35.925781 60.585938 37.199219 L 49.460938 37.199219 C 48.886719 37.199219 48.417969 37.664062 48.417969 38.242188 C 48.417969 38.820312 48.886719 39.285156 49.460938 39.285156 L 60.585938 39.285156 C 61.023438 40.554688 62.21875 41.476562 63.636719 41.476562 C 65.421875 41.476562 66.871094 40.027344 66.871094 38.242188 C 66.871094 36.457031 65.421875 35.003906 63.636719 35.003906 Z M 63.636719 35.003906 " fill-opacity="1" fill-rule="nonzero"/><path fill="#ef1c24" d="M 49.464844 32.832031 L 52.707031 32.832031 C 52.925781 32.832031 53.140625 32.761719 53.316406 32.632812 L 59.882812 27.878906 C 60.355469 28.144531 60.890625 28.308594 61.46875 28.308594 C 63.253906 28.308594 64.707031 26.859375 64.707031 25.074219 C 64.707031 23.289062 63.253906 21.835938 61.46875 21.835938 C 59.6875 21.835938 58.234375 23.289062 58.234375 25.074219 C 58.234375 25.511719 58.324219 25.933594 58.484375 26.316406 L 52.367188 30.746094 L 49.464844 30.746094 C 48.886719 30.746094 48.421875 31.214844 48.421875 31.789062 C 48.421875 32.367188 48.886719 32.832031 49.464844 32.832031 Z M 49.464844 32.832031 " fill-opacity="1" fill-rule="nonzero"/><path fill="#ef1c24" d="M 61.46875 48.171875 C 60.890625 48.171875 60.355469 48.339844 59.886719 48.605469 L 53.320312 43.847656 C 53.140625 43.71875 52.925781 43.648438 52.707031 43.648438 L 49.464844 43.648438 C 48.886719 43.648438 48.421875 44.117188 48.421875 44.695312 C 48.421875 45.269531 48.886719 45.738281 49.464844 45.738281 L 52.367188 45.738281 L 58.484375 50.167969 C 58.324219 50.550781 58.234375 50.96875 58.234375 51.410156 C 58.234375 53.195312 59.6875 54.644531 61.472656 54.644531 C 63.257812 54.644531 64.707031 53.195312 64.707031 51.410156 C 64.707031 49.625 63.257812 48.171875 61.472656 48.171875 Z M 61.46875 48.171875 " fill-opacity="1" fill-rule="nonzero"/><path fill="#ef1c24" d="M 18.921875 39.550781 C 18.347656 39.550781 17.878906 39.085938 17.878906 38.507812 C 17.878906 37.929688 18.347656 37.464844 18.921875 37.464844 C 20.035156 37.464844 20.941406 36.558594 20.941406 35.445312 C 20.941406 34.332031 20.039062 33.425781 18.921875 33.425781 C 18.347656 33.425781 17.878906 32.960938 17.878906 32.382812 C 17.878906 31.808594 18.347656 31.339844 18.921875 31.339844 C 21.1875 31.339844 23.027344 33.183594 23.027344 35.445312 C 23.027344 37.707031 21.1875 39.550781 18.921875 39.550781 Z M 18.921875 39.550781 " fill-opacity="1" fill-rule="nonzero"/><path fill="#ef1c24" d="M 28.507812 27.179688 C 27.929688 27.179688 27.460938 26.714844 27.460938 26.136719 C 27.460938 25.558594 27.929688 25.09375 28.507812 25.09375 C 29.617188 25.09375 30.523438 24.1875 30.523438 23.074219 C 30.523438 21.960938 29.617188 21.054688 28.507812 21.054688 C 27.929688 21.054688 27.460938 20.589844 27.460938 20.011719 C 27.460938 19.433594 27.929688 18.96875 28.507812 18.96875 C 30.769531 18.96875 32.609375 20.8125 32.609375 23.074219 C 32.609375 25.339844 30.769531 27.179688 28.507812 27.179688 Z M 28.507812 27.179688 " fill-opacity="1" fill-rule="nonzero"/><path fill="#ef1c24" d="M 19.402344 44.183594 C 16.894531 44.183594 14.84375 43.207031 13.726562 41.453125 C 13.417969 40.964844 13.558594 40.320312 14.042969 40.011719 C 14.53125 39.703125 15.175781 39.84375 15.484375 40.328125 C 16.257812 41.535156 17.882812 42.1875 19.832031 42.085938 C 20.398438 42.03125 20.902344 42.496094 20.933594 43.070312 C 20.964844 43.644531 20.523438 44.136719 19.949219 44.167969 C 19.765625 44.179688 19.582031 44.1875 19.402344 44.1875 Z M 19.402344 44.183594 " fill-opacity="1" fill-rule="nonzero"/><path fill="#ef1c24" d="M 25.03125 30.425781 C 22.632812 30.425781 20.707031 29.46875 19.574219 27.695312 C 19.265625 27.210938 19.40625 26.5625 19.894531 26.253906 C 20.378906 25.945312 21.023438 26.085938 21.335938 26.574219 C 22.34375 28.15625 24.117188 28.390625 25.433594 28.328125 C 26 28.269531 26.5 28.738281 26.53125 29.3125 C 26.5625 29.886719 26.121094 30.378906 25.546875 30.410156 C 25.371094 30.421875 25.203125 30.425781 25.03125 30.425781 Z M 25.03125 30.425781 " fill-opacity="1" fill-rule="nonzero"/><path fill="#ef1c24" d="M 20.453125 59.699219 C 20.019531 59.699219 19.613281 59.425781 19.464844 58.988281 C 19.28125 58.441406 19.578125 57.851562 20.125 57.667969 L 20.652344 57.492188 C 22.679688 56.84375 24.773438 56.171875 25.25 52.621094 C 25.324219 52.050781 25.851562 51.652344 26.421875 51.726562 C 26.992188 51.804688 27.394531 52.328125 27.316406 52.898438 C 26.664062 57.757812 23.429688 58.796875 21.289062 59.480469 L 20.785156 59.644531 C 20.675781 59.683594 20.5625 59.699219 20.453125 59.699219 Z M 20.453125 59.699219 " fill-opacity="1" fill-rule="nonzero"/><path fill="#ef1c24" d="M 29.101562 60.347656 C 28.871094 60.347656 28.640625 60.273438 28.449219 60.117188 C 28 59.757812 27.925781 59.101562 28.285156 58.652344 C 30.398438 56.011719 33.445312 55.46875 37.363281 55.46875 C 37.941406 55.46875 38.410156 55.9375 38.410156 56.511719 C 38.410156 57.089844 37.941406 57.558594 37.363281 57.558594 C 33.28125 57.558594 31.332031 58.183594 29.914062 59.957031 C 29.710938 60.210938 29.40625 60.347656 29.101562 60.347656 Z M 29.101562 60.347656 " fill-opacity="1" fill-rule="nonzero"/><path fill="#ef1c24" d="M 16.871094 53.558594 C 16.707031 53.558594 16.539062 53.519531 16.382812 53.4375 C 15.875 53.164062 15.683594 52.535156 15.953125 52.023438 L 16.546875 50.910156 C 17.625 48.886719 19.722656 47.632812 22.011719 47.632812 L 24.757812 47.632812 C 25.332031 47.632812 25.800781 48.097656 25.800781 48.675781 C 25.800781 49.253906 25.332031 49.71875 24.757812 49.71875 L 22.011719 49.71875 C 20.492188 49.71875 19.105469 50.550781 18.390625 51.890625 L 17.792969 53.007812 C 17.605469 53.359375 17.246094 53.558594 16.871094 53.558594 Z M 16.871094 53.558594 " fill-opacity="1" fill-rule="nonzero"/><path fill="#ef1c24" d="M 24.527344 21.058594 L 21.1875 21.058594 C 20.609375 21.058594 20.140625 20.589844 20.140625 20.011719 C 20.140625 19.4375 20.609375 18.96875 21.1875 18.96875 L 24.527344 18.96875 C 25.105469 18.96875 25.570312 19.4375 25.570312 20.011719 C 25.570312 20.589844 25.105469 21.058594 24.527344 21.058594 Z M 24.527344 21.058594 " fill-opacity="1" fill-rule="nonzero"/><path fill="#ef1c24" d="M 43.636719 28.339844 L 31.09375 28.339844 C 29.089844 28.339844 27.460938 29.96875 27.460938 31.96875 L 27.460938 44.511719 C 27.460938 46.515625 29.089844 48.144531 31.09375 48.144531 L 43.636719 48.144531 C 45.636719 48.144531 47.265625 46.515625 47.265625 44.511719 L 47.265625 31.96875 C 47.265625 29.96875 45.636719 28.339844 43.636719 28.339844 Z M 38.773438 43.976562 C 38.667969 44.011719 38.558594 44.027344 38.453125 44.027344 C 38.011719 44.027344 37.601562 43.746094 37.460938 43.300781 L 37.09375 42.160156 L 33.742188 42.160156 L 33.378906 43.300781 C 33.234375 43.746094 32.824219 44.027344 32.382812 44.027344 C 32.277344 44.027344 32.167969 44.011719 32.0625 43.976562 C 31.515625 43.800781 31.210938 43.214844 31.386719 42.664062 L 34.421875 33.179688 C 34.433594 33.152344 34.453125 33.132812 34.464844 33.105469 C 34.492188 33.039062 34.527344 32.980469 34.570312 32.921875 C 34.605469 32.867188 34.644531 32.816406 34.6875 32.769531 C 34.734375 32.722656 34.785156 32.683594 34.839844 32.648438 C 34.902344 32.609375 34.957031 32.574219 35.027344 32.546875 C 35.054688 32.535156 35.070312 32.511719 35.101562 32.503906 C 35.136719 32.492188 35.171875 32.5 35.210938 32.492188 C 35.277344 32.476562 35.34375 32.46875 35.414062 32.46875 C 35.488281 32.46875 35.558594 32.476562 35.628906 32.492188 C 35.664062 32.5 35.699219 32.492188 35.734375 32.503906 C 35.761719 32.511719 35.78125 32.535156 35.808594 32.542969 C 35.875 32.574219 35.9375 32.609375 35.996094 32.648438 C 36.050781 32.6875 36.101562 32.722656 36.144531 32.769531 C 36.191406 32.816406 36.230469 32.867188 36.265625 32.921875 C 36.308594 32.980469 36.339844 33.039062 36.367188 33.105469 C 36.378906 33.132812 36.402344 33.152344 36.410156 33.179688 L 39.445312 42.664062 C 39.621094 43.214844 39.320312 43.800781 38.769531 43.976562 Z M 43.390625 42.984375 C 43.390625 43.558594 42.921875 44.027344 42.34375 44.027344 C 41.769531 44.027344 41.300781 43.558594 41.300781 42.984375 L 41.300781 33.5 C 41.300781 32.921875 41.769531 32.453125 42.34375 32.453125 C 42.921875 32.453125 43.390625 32.921875 43.390625 33.5 Z M 43.390625 42.984375 " fill-opacity="1" fill-rule="nonzero"/><path fill="#ef1c24" d="M 34.410156 40.074219 L 36.429688 40.074219 L 35.417969 36.921875 Z M 34.410156 40.074219 " fill-opacity="1" fill-rule="nonzero"/></svg>