<svg xmlns="http://www.w3.org/2000/svg" xmlns:xlink="http://www.w3.org/1999/xlink" width="100" zoomAndPan="magnify" viewBox="0 0 75 74.999997" height="100" preserveAspectRatio="xMidYMid meet" version="1.0"><defs><clipPath id="6f1de64541"><path d="M 7.5 11.4375 L 67.5 11.4375 L 67.5 63.9375 L 7.5 63.9375 Z M 7.5 11.4375 " clip-rule="nonzero"/></clipPath></defs><g clip-path="url(#6f1de64541)"><path fill="#ef1c24" d="M 49.542969 42.992188 C 46.222656 42.546875 43.015625 41.046875 40.464844 38.496094 C 34.277344 32.308594 34.277344 22.28125 40.464844 16.097656 C 46.648438 9.910156 56.675781 9.910156 62.859375 16.097656 C 69.046875 22.28125 69.046875 32.308594 62.859375 38.496094 C 60.683594 40.671875 58.027344 42.085938 55.230469 42.730469 L 55.300781 47.570312 C 56.226562 47.863281 56.910156 48.726562 56.925781 49.746094 L 56.925781 49.75 L 57.097656 61.125 C 57.117188 62.398438 56.09375 63.457031 54.8125 63.480469 L 50.582031 63.542969 L 50.578125 63.542969 C 49.308594 63.5625 48.25 62.539062 48.226562 61.261719 C 48.226562 61.261719 48.226562 61.257812 48.226562 61.257812 C 48.226562 61.257812 48.058594 49.882812 48.058594 49.882812 C 48.039062 48.859375 48.695312 47.972656 49.613281 47.65625 Z M 53.296875 43.050781 C 52.695312 43.113281 52.089844 43.140625 51.480469 43.132812 L 51.546875 47.507812 L 53.363281 47.480469 Z M 61.492188 17.464844 C 56.0625 12.035156 47.261719 12.035156 41.832031 17.464844 C 36.402344 22.894531 36.402344 31.695312 41.832031 37.125 C 47.261719 42.554688 56.0625 42.554688 61.492188 37.125 C 66.921875 31.695312 66.921875 22.894531 61.492188 17.464844 Z M 60.367188 18.589844 C 65.171875 23.398438 65.171875 31.191406 60.367188 36 C 55.558594 40.808594 47.765625 40.808594 42.957031 36 C 38.152344 31.191406 38.152344 23.398438 42.957031 18.589844 C 47.765625 13.785156 55.558594 13.785156 60.367188 18.589844 Z M 58.996094 19.960938 C 54.945312 15.910156 48.378906 15.910156 44.328125 19.960938 C 40.277344 24.011719 40.277344 30.578125 44.328125 34.632812 C 48.378906 38.683594 54.945312 38.683594 58.996094 34.632812 C 63.050781 30.578125 63.050781 24.011719 58.996094 19.960938 Z M 50.238281 27.265625 L 48.777344 27.246094 C 48.242188 27.238281 47.816406 26.796875 47.824219 26.261719 C 47.828125 25.730469 48.269531 25.300781 48.804688 25.308594 L 52.765625 25.363281 C 53.035156 25.367188 53.285156 25.480469 53.464844 25.675781 C 53.648438 25.875 53.738281 26.136719 53.71875 26.402344 L 53.449219 30.121094 C 53.410156 30.652344 52.945312 31.054688 52.414062 31.015625 C 51.878906 30.976562 51.480469 30.511719 51.519531 29.980469 L 51.617188 28.628906 L 46.671875 32.996094 C 46.273438 33.351562 45.660156 33.3125 45.308594 32.914062 C 44.953125 32.511719 44.992188 31.902344 45.390625 31.546875 Z M 50.550781 61.605469 L 54.78125 61.542969 C 54.992188 61.539062 55.164062 61.367188 55.164062 61.15625 L 54.992188 49.777344 C 54.988281 49.566406 54.8125 49.394531 54.601562 49.398438 L 50.371094 49.460938 C 50.367188 49.460938 50.367188 49.460938 50.367188 49.460938 C 50.15625 49.464844 49.988281 49.636719 49.992188 49.847656 C 49.992188 49.851562 49.992188 49.851562 49.992188 49.851562 C 49.992188 49.851562 50.160156 61.226562 50.160156 61.226562 C 50.164062 61.4375 50.339844 61.609375 50.550781 61.605469 Z M 8.386719 53.703125 C 8.160156 53.6875 7.945312 53.589844 7.777344 53.417969 C 7.402344 53.035156 7.410156 52.421875 7.792969 52.046875 L 20.878906 39.261719 C 21.0625 39.082031 21.308594 38.984375 21.566406 38.988281 C 21.824219 38.992188 22.070312 39.097656 22.246094 39.28125 L 28.914062 46.109375 L 34.644531 41.046875 C 35.042969 40.691406 35.65625 40.730469 36.007812 41.128906 C 36.363281 41.53125 36.324219 42.144531 35.925781 42.496094 L 29.503906 48.171875 C 29.117188 48.511719 28.53125 48.492188 28.171875 48.121094 L 21.539062 41.324219 L 10.84375 51.773438 L 15.152344 51.773438 L 20.636719 46.289062 C 21.015625 45.910156 21.628906 45.910156 22.007812 46.289062 L 26.753906 51.035156 L 42.210938 51.035156 L 40.921875 50.007812 C 40.503906 49.675781 40.433594 49.066406 40.765625 48.648438 C 41.101562 48.230469 41.707031 48.160156 42.128906 48.492188 L 45.382812 51.082031 C 45.613281 51.265625 45.746094 51.542969 45.746094 51.839844 C 45.746094 52.132812 45.613281 52.410156 45.382812 52.59375 L 42.128906 55.183594 C 41.707031 55.515625 41.101562 55.445312 40.765625 55.027344 C 40.433594 54.609375 40.503906 54 40.921875 53.667969 L 41.800781 52.96875 L 26.351562 52.96875 C 26.09375 52.96875 25.847656 52.867188 25.667969 52.6875 L 21.320312 48.339844 L 16.238281 53.425781 C 16.054688 53.605469 15.808594 53.707031 15.554688 53.707031 L 8.46875 53.707031 C 8.4375 53.707031 8.410156 53.707031 8.386719 53.703125 Z M 38.15625 40.574219 C 37.765625 40.9375 37.152344 40.914062 36.789062 40.523438 C 36.425781 40.128906 36.449219 39.519531 36.84375 39.15625 L 38.019531 38.0625 C 38.414062 37.699219 39.027344 37.722656 39.390625 38.113281 C 39.753906 38.503906 39.730469 39.117188 39.335938 39.480469 Z M 11.976562 46.632812 C 11.976562 47.164062 11.542969 47.597656 11.007812 47.597656 C 10.472656 47.597656 10.039062 47.164062 10.039062 46.632812 L 10.039062 33.542969 C 10.039062 33.007812 10.472656 32.574219 11.007812 32.574219 L 15.542969 32.574219 C 16.078125 32.574219 16.511719 33.007812 16.511719 33.542969 L 16.511719 42.199219 C 16.511719 42.734375 16.078125 43.167969 15.542969 43.167969 C 15.011719 43.167969 14.578125 42.734375 14.578125 42.199219 C 14.578125 42.199219 14.578125 34.507812 14.578125 34.507812 C 14.578125 34.507812 11.976562 34.507812 11.976562 34.507812 Z M 20.019531 38.769531 C 20.019531 39.304688 19.585938 39.738281 19.054688 39.738281 C 18.519531 39.738281 18.085938 39.304688 18.085938 38.769531 L 18.085938 18.238281 C 18.085938 17.703125 18.519531 17.269531 19.054688 17.269531 L 23.589844 17.269531 C 24.125 17.269531 24.558594 17.703125 24.558594 18.238281 L 24.558594 38.410156 C 24.558594 38.945312 24.125 39.378906 23.589844 39.378906 C 23.054688 39.378906 22.621094 38.945312 22.621094 38.410156 C 22.621094 38.410156 22.621094 19.203125 22.621094 19.203125 L 20.019531 19.203125 Z M 28.066406 42.007812 C 28.066406 42.542969 27.632812 42.976562 27.097656 42.976562 C 26.566406 42.976562 26.132812 42.542969 26.132812 42.007812 L 26.132812 27.203125 C 26.132812 26.667969 26.566406 26.234375 27.097656 26.234375 L 31.636719 26.234375 C 32.171875 26.234375 32.605469 26.667969 32.605469 27.203125 L 32.605469 41.367188 C 32.605469 41.898438 32.171875 42.332031 31.636719 42.332031 C 31.101562 42.332031 30.667969 41.898438 30.667969 41.367188 C 30.667969 41.367188 30.667969 28.171875 30.667969 28.171875 L 28.066406 28.171875 Z M 28.066406 42.007812 " fill-opacity="1" fill-rule="evenodd"/></g></svg>