<svg xmlns="http://www.w3.org/2000/svg" xmlns:xlink="http://www.w3.org/1999/xlink" width="100" zoomAndPan="magnify" viewBox="0 0 75 74.999997" height="100" preserveAspectRatio="xMidYMid meet" version="1.0"><defs><clipPath id="41b8397019"><path d="M 9.445312 9.445312 L 65.695312 9.445312 L 65.695312 65.695312 L 9.445312 65.695312 Z M 9.445312 9.445312 " clip-rule="nonzero"/></clipPath></defs><g clip-path="url(#41b8397019)"><path fill="#ef1c24" d="M 52.59375 40.753906 L 64.019531 40.753906 C 64.574219 40.753906 65.074219 40.46875 65.347656 39.984375 C 65.625 39.503906 65.625 38.929688 65.347656 38.453125 L 54.679688 19.976562 C 54.402344 19.496094 53.90625 19.210938 53.355469 19.207031 C 53.351562 19.207031 53.351562 19.207031 53.351562 19.207031 C 52.796875 19.207031 52.300781 19.492188 52.019531 19.976562 L 48.140625 26.695312 C 44.347656 23.113281 39.136719 21.855469 34.347656 22.941406 L 36.808594 18.6875 C 37.035156 18.746094 37.269531 18.78125 37.507812 18.78125 C 37.511719 18.78125 37.511719 18.78125 37.511719 18.78125 C 38.230469 18.78125 38.902344 18.5 39.410156 17.992188 C 40.457031 16.945312 40.457031 15.242188 39.410156 14.191406 C 38.359375 13.148438 36.660156 13.148438 35.613281 14.195312 C 35.476562 14.332031 35.359375 14.480469 35.253906 14.636719 L 28 12.277344 C 28.003906 12.226562 28.007812 12.175781 28.007812 12.121094 C 28.003906 11.40625 27.726562 10.730469 27.21875 10.226562 C 26.171875 9.179688 24.46875 9.179688 23.421875 10.226562 C 22.914062 10.730469 22.632812 11.40625 22.632812 12.121094 C 22.632812 12.839844 22.914062 13.515625 23.421875 14.023438 C 23.945312 14.546875 24.632812 14.804688 25.320312 14.804688 C 26.007812 14.804688 26.695312 14.546875 27.21875 14.023438 C 27.355469 13.886719 27.472656 13.738281 27.578125 13.582031 L 34.832031 15.941406 C 34.828125 15.992188 34.828125 16.042969 34.828125 16.097656 C 34.828125 16.8125 35.109375 17.488281 35.613281 17.992188 C 35.617188 17.992188 35.621094 17.996094 35.621094 18 L 32.4375 23.507812 C 30.511719 24.222656 28.699219 25.339844 27.136719 26.863281 L 21.167969 16.527344 C 21.046875 16.3125 20.820312 16.183594 20.574219 16.183594 L 17.476562 16.183594 C 17.347656 15.839844 17.144531 15.515625 16.871094 15.242188 C 15.824219 14.195312 14.121094 14.195312 13.070312 15.242188 C 12.027344 16.289062 12.027344 17.992188 13.070312 19.039062 C 13.578125 19.546875 14.253906 19.824219 14.972656 19.824219 C 15.691406 19.824219 16.363281 19.546875 16.871094 19.039062 C 17.285156 18.621094 17.535156 18.097656 17.621094 17.554688 L 20.179688 17.554688 L 26.160156 27.914062 C 25.75 28.398438 25.375 28.902344 25.03125 29.425781 L 14.8125 26.683594 C 14.8125 25.996094 14.550781 25.304688 14.027344 24.78125 C 13.519531 24.273438 12.84375 23.992188 12.128906 23.992188 C 12.125 23.992188 12.125 23.992188 12.125 23.992188 C 11.40625 23.992188 10.734375 24.273438 10.230469 24.777344 C 9.722656 25.285156 9.441406 25.957031 9.441406 26.675781 C 9.441406 27.390625 9.722656 28.070312 10.230469 28.578125 C 10.753906 29.101562 11.4375 29.359375 12.125 29.359375 C 12.8125 29.359375 13.503906 29.101562 14.027344 28.578125 C 14.199219 28.402344 14.339844 28.210938 14.457031 28.007812 L 18.324219 29.042969 L 17.113281 33.554688 L 14.542969 35.035156 C 14.539062 35.035156 14.539062 35.03125 14.535156 35.027344 C 13.492188 33.980469 11.789062 33.980469 10.738281 35.027344 C 9.691406 36.078125 9.691406 37.78125 10.738281 38.824219 C 11.246094 39.332031 11.921875 39.609375 12.636719 39.609375 C 12.636719 39.609375 12.640625 39.609375 12.640625 39.609375 C 13.359375 39.609375 14.03125 39.332031 14.535156 38.824219 C 15.042969 38.320312 15.324219 37.644531 15.324219 36.929688 C 15.324219 36.6875 15.292969 36.449219 15.230469 36.222656 L 18.046875 34.597656 C 18.203125 34.507812 18.320312 34.355469 18.367188 34.179688 L 19.648438 29.398438 L 24.308594 30.648438 C 22.867188 33.386719 22.28125 36.527344 22.683594 39.664062 L 20.867188 39.664062 C 20.304688 39.664062 19.832031 40.082031 19.765625 40.644531 L 19.546875 42.582031 C 18.769531 42.804688 18.019531 43.113281 17.3125 43.507812 L 15.78125 42.292969 C 15.34375 41.949219 14.714844 41.980469 14.308594 42.378906 L 12.15625 44.53125 C 11.761719 44.925781 11.726562 45.5625 12.078125 46.003906 L 13.292969 47.535156 C 12.894531 48.238281 12.585938 48.988281 12.367188 49.761719 L 10.433594 49.984375 C 9.871094 50.042969 9.445312 50.519531 9.445312 51.085938 L 9.445312 54.128906 C 9.445312 54.699219 9.871094 55.171875 10.425781 55.230469 L 12.367188 55.453125 C 12.585938 56.230469 12.894531 56.980469 13.292969 57.683594 L 12.074219 59.210938 C 11.722656 59.652344 11.757812 60.285156 12.15625 60.683594 L 14.3125 62.84375 C 14.71875 63.238281 15.351562 63.269531 15.78125 62.921875 L 17.3125 61.707031 C 18.015625 62.097656 18.765625 62.410156 19.542969 62.632812 L 19.761719 64.578125 C 19.832031 65.136719 20.304688 65.554688 20.863281 65.554688 L 23.910156 65.554688 C 24.46875 65.554688 24.941406 65.132812 25.011719 64.570312 L 25.230469 62.632812 C 26.003906 62.414062 26.753906 62.101562 27.460938 61.707031 L 28.988281 62.921875 C 29.421875 63.273438 30.054688 63.238281 30.464844 62.839844 L 32.617188 60.6875 C 33.015625 60.289062 33.050781 59.65625 32.699219 59.210938 L 31.484375 57.683594 C 31.878906 56.980469 32.191406 56.230469 32.410156 55.453125 L 34.34375 55.234375 C 34.90625 55.171875 35.332031 54.699219 35.332031 54.132812 L 35.332031 52.710938 C 36.132812 52.835938 36.9375 52.902344 37.738281 52.902344 C 40.621094 52.902344 43.433594 52.082031 45.863281 50.535156 L 49.78125 54.453125 C 49.445312 54.96875 49.265625 55.574219 49.265625 56.207031 C 49.265625 57.0625 49.59375 57.867188 50.199219 58.46875 L 56.351562 64.621094 C 56.953125 65.222656 57.757812 65.554688 58.613281 65.554688 C 58.617188 65.554688 58.617188 65.554688 58.617188 65.554688 C 59.472656 65.554688 60.273438 65.222656 60.875 64.621094 L 64.617188 60.878906 C 65.222656 60.277344 65.554688 59.472656 65.554688 58.613281 C 65.554688 57.757812 65.222656 56.953125 64.621094 56.351562 L 58.46875 50.199219 C 57.863281 49.597656 57.0625 49.265625 56.203125 49.265625 C 55.570312 49.265625 54.96875 49.449219 54.453125 49.785156 L 50.539062 45.863281 C 51.527344 44.308594 52.222656 42.585938 52.59375 40.753906 Z M 26.25 13.054688 C 25.734375 13.566406 24.902344 13.566406 24.386719 13.054688 C 24.140625 12.804688 24 12.476562 24 12.125 C 24 11.773438 24.140625 11.445312 24.386719 11.195312 C 24.902344 10.683594 25.734375 10.683594 26.246094 11.199219 C 26.496094 11.445312 26.632812 11.773438 26.632812 12.125 C 26.632812 12.476562 26.496094 12.808594 26.25 13.054688 Z M 36.582031 15.164062 C 36.835938 14.910156 37.175781 14.78125 37.511719 14.78125 C 37.847656 14.78125 38.183594 14.910156 38.441406 15.164062 C 38.953125 15.679688 38.953125 16.511719 38.441406 17.023438 C 38.195312 17.273438 37.863281 17.410156 37.511719 17.410156 C 37.160156 17.410156 36.832031 17.273438 36.585938 17.023438 C 36.582031 17.023438 36.582031 17.023438 36.582031 17.019531 C 36.335938 16.773438 36.199219 16.445312 36.195312 16.09375 C 36.195312 15.746094 36.332031 15.414062 36.582031 15.164062 Z M 15.898438 18.070312 C 15.652344 18.316406 15.324219 18.453125 14.972656 18.453125 C 14.621094 18.453125 14.289062 18.316406 14.042969 18.070312 C 13.53125 17.554688 13.53125 16.722656 14.039062 16.210938 C 14.554688 15.699219 15.390625 15.699219 15.898438 16.210938 C 16.414062 16.722656 16.414062 17.554688 15.898438 18.070312 Z M 13.058594 27.605469 C 12.546875 28.117188 11.710938 28.121094 11.199219 27.609375 C 10.949219 27.359375 10.8125 27.027344 10.8125 26.675781 C 10.8125 26.324219 10.949219 25.996094 11.199219 25.746094 C 11.449219 25.5 11.777344 25.363281 12.125 25.363281 C 12.125 25.363281 12.128906 25.363281 12.128906 25.363281 C 12.480469 25.363281 12.808594 25.5 13.058594 25.746094 C 13.570312 26.261719 13.570312 27.09375 13.058594 27.605469 Z M 13.566406 37.855469 C 13.316406 38.105469 12.988281 38.242188 12.636719 38.242188 C 12.285156 38.242188 11.957031 38.105469 11.707031 37.855469 C 11.195312 37.34375 11.195312 36.511719 11.707031 36 C 12.21875 35.484375 13.054688 35.484375 13.566406 35.996094 C 13.816406 36.246094 13.953125 36.578125 13.953125 36.929688 C 13.953125 37.277344 13.8125 37.609375 13.566406 37.855469 Z M 53.207031 20.664062 C 53.246094 20.59375 53.304688 20.578125 53.351562 20.578125 C 53.394531 20.578125 53.453125 20.59375 53.492188 20.660156 L 64.160156 39.140625 C 64.199219 39.207031 64.183594 39.265625 64.160156 39.300781 C 64.140625 39.339844 64.097656 39.382812 64.019531 39.382812 L 42.683594 39.382812 C 42.605469 39.382812 42.5625 39.339844 42.539062 39.304688 C 42.519531 39.265625 42.503906 39.207031 42.542969 39.140625 L 46.4375 32.386719 C 46.445312 32.375 46.453125 32.363281 46.460938 32.351562 Z M 32.617188 44.53125 L 30.460938 42.375 C 30.214844 42.132812 29.882812 42.027344 29.558594 42.0625 C 27.636719 38.460938 28.289062 34.046875 31.238281 31.140625 C 34.871094 27.5625 40.738281 27.605469 44.316406 31.238281 C 44.570312 31.5 44.816406 31.777344 45.042969 32.066406 L 41.359375 38.453125 C 41.078125 38.929688 41.078125 39.503906 41.351562 39.984375 C 41.628906 40.46875 42.125 40.757812 42.683594 40.757812 L 46.464844 40.757812 C 46.003906 42.09375 45.234375 43.3125 44.214844 44.316406 C 41.164062 47.324219 36.5 47.824219 32.898438 45.613281 C 33.003906 45.238281 32.910156 44.820312 32.617188 44.53125 Z M 28.042969 27.894531 C 33.421875 22.597656 42.078125 22.625 47.433594 27.921875 L 45.773438 30.800781 C 45.617188 30.621094 45.457031 30.445312 45.292969 30.277344 C 41.183594 26.105469 34.449219 26.054688 30.277344 30.164062 C 28.550781 31.863281 27.453125 34.117188 27.179688 36.519531 C 26.933594 38.679688 27.359375 40.878906 28.386719 42.777344 L 27.460938 43.511719 C 26.757812 43.117188 26.007812 42.808594 25.230469 42.585938 L 25.011719 40.640625 C 24.949219 40.136719 24.554688 39.746094 24.066406 39.675781 C 23.453125 35.34375 24.917969 30.976562 28.042969 27.894531 Z M 32.082031 54.109375 C 31.621094 54.160156 31.25 54.480469 31.132812 54.929688 C 30.929688 55.703125 30.617188 56.453125 30.210938 57.148438 C 30.207031 57.152344 30.207031 57.15625 30.203125 57.160156 C 29.980469 57.558594 30.015625 58.03125 30.300781 58.398438 L 31.480469 59.882812 L 29.660156 61.703125 L 28.183594 60.527344 C 27.820312 60.230469 27.328125 60.195312 26.933594 60.429688 C 26.238281 60.835938 25.488281 61.144531 24.707031 61.351562 C 24.269531 61.46875 23.949219 61.835938 23.890625 62.296875 L 23.675781 64.183594 L 21.097656 64.183594 L 20.886719 62.285156 C 20.828125 61.835938 20.503906 61.46875 20.070312 61.351562 C 19.289062 61.144531 18.539062 60.835938 17.851562 60.433594 C 17.449219 60.195312 16.957031 60.230469 16.597656 60.523438 L 15.113281 61.703125 L 13.292969 59.882812 L 14.480469 58.390625 C 14.761719 58.027344 14.796875 57.558594 14.570312 57.160156 C 14.566406 57.15625 14.566406 57.152344 14.566406 57.148438 C 14.15625 56.453125 13.847656 55.707031 13.644531 54.925781 C 13.527344 54.480469 13.152344 54.160156 12.695312 54.113281 L 10.816406 53.894531 L 10.816406 51.320312 L 12.695312 51.105469 C 13.152344 51.054688 13.527344 50.734375 13.644531 50.289062 C 13.847656 49.511719 14.15625 48.765625 14.566406 48.066406 C 14.566406 48.0625 14.570312 48.058594 14.570312 48.058594 C 14.792969 47.660156 14.757812 47.175781 14.476562 46.820312 L 13.292969 45.332031 L 15.113281 43.511719 L 16.589844 44.6875 C 16.953125 44.984375 17.449219 45.019531 17.84375 44.785156 C 18.539062 44.382812 19.289062 44.070312 20.066406 43.863281 C 20.503906 43.746094 20.824219 43.378906 20.886719 42.917969 L 21.097656 41.035156 L 23.476562 41.035156 C 23.476562 41.035156 23.476562 41.035156 23.480469 41.035156 L 23.675781 41.035156 L 23.890625 42.929688 C 23.949219 43.378906 24.269531 43.746094 24.707031 43.863281 C 25.488281 44.070312 26.238281 44.382812 26.925781 44.78125 C 27.328125 45.019531 27.820312 44.984375 28.179688 44.695312 L 29.664062 43.511719 L 31.484375 45.335938 L 31.457031 45.367188 C 31.441406 45.386719 31.425781 45.40625 31.414062 45.425781 C 31.414062 45.425781 31.414062 45.425781 31.410156 45.425781 L 30.300781 46.824219 C 30.019531 47.179688 29.984375 47.664062 30.207031 48.058594 C 30.207031 48.0625 30.210938 48.066406 30.210938 48.070312 C 30.617188 48.765625 30.929688 49.511719 31.132812 50.292969 C 31.25 50.738281 31.625 51.058594 32.078125 51.105469 L 33.960938 51.320312 L 33.960938 51.875 C 33.960938 51.875 33.960938 51.878906 33.960938 51.878906 L 33.960938 53.898438 Z M 35.332031 51.316406 L 35.332031 51.085938 C 35.332031 50.519531 34.90625 50.042969 34.351562 49.984375 L 32.410156 49.761719 C 32.191406 48.988281 31.882812 48.238281 31.484375 47.535156 L 32.117188 46.738281 C 33.84375 47.820312 35.789062 48.351562 37.726562 48.351562 C 40.433594 48.351562 43.121094 47.316406 45.175781 45.292969 C 46.460938 44.03125 47.394531 42.46875 47.902344 40.757812 L 51.1875 40.757812 C 50.613281 43.339844 49.320312 45.675781 47.410156 47.558594 C 44.214844 50.707031 39.734375 52.089844 35.332031 51.316406 Z M 56.203125 50.632812 C 56.695312 50.632812 57.152344 50.824219 57.496094 51.167969 L 63.648438 57.320312 C 63.992188 57.660156 64.183594 58.121094 64.183594 58.613281 C 64.183594 59.101562 63.992188 59.5625 63.648438 59.902344 C 63.648438 59.902344 63.648438 59.902344 63.648438 59.90625 L 59.90625 63.648438 C 59.5625 63.992188 59.105469 64.183594 58.617188 64.183594 C 58.617188 64.183594 58.613281 64.183594 58.613281 64.183594 C 58.125 64.183594 57.664062 63.992188 57.320312 63.648438 L 51.167969 57.496094 C 50.453125 56.78125 50.453125 55.621094 51.167969 54.90625 L 54.914062 51.164062 C 55.253906 50.824219 55.710938 50.632812 56.203125 50.632812 Z M 53.4375 50.703125 L 50.703125 53.433594 L 47 49.734375 C 47.480469 49.363281 47.9375 48.964844 48.375 48.535156 C 48.867188 48.050781 49.316406 47.535156 49.734375 47 Z M 22.386719 46.40625 C 18.96875 46.40625 16.1875 49.1875 16.1875 52.609375 C 16.1875 56.027344 18.96875 58.808594 22.386719 58.808594 C 25.808594 58.808594 28.589844 56.027344 28.589844 52.609375 C 28.585938 49.191406 25.804688 46.40625 22.386719 46.40625 Z M 22.386719 57.4375 C 19.726562 57.4375 17.558594 55.273438 17.558594 52.609375 C 17.558594 49.945312 19.726562 47.777344 22.386719 47.777344 C 25.050781 47.777344 27.21875 49.945312 27.21875 52.609375 C 27.214844 55.273438 25.050781 57.4375 22.386719 57.4375 Z M 35.121094 36.070312 C 35.953125 36.070312 36.839844 35.449219 36.839844 34.292969 C 36.839844 33.804688 37.238281 33.40625 37.726562 33.40625 C 38.21875 33.40625 38.617188 33.804688 38.617188 34.292969 C 38.617188 34.78125 38.542969 34.816406 38.464844 34.859375 C 38.304688 34.941406 38.125 35 37.9375 35.066406 C 37.464844 35.226562 36.875 35.429688 36.414062 36.082031 C 36.148438 36.460938 36.007812 36.914062 36.007812 37.394531 L 36.007812 39.730469 C 36.007812 40.664062 36.746094 41.363281 37.726562 41.363281 C 38.707031 41.363281 39.445312 40.660156 39.445312 39.730469 L 39.445312 38.167969 C 39.730469 38.0625 40.046875 37.925781 40.355469 37.730469 C 41.464844 37.027344 42.050781 35.839844 42.050781 34.292969 C 42.050781 31.910156 40.113281 29.96875 37.726562 29.96875 C 35.339844 29.96875 33.398438 31.910156 33.398438 34.292969 C 33.402344 35.449219 34.289062 36.070312 35.121094 36.070312 Z M 37.726562 31.339844 C 39.355469 31.339844 40.683594 32.664062 40.683594 34.292969 C 40.683594 35.375 40.335938 36.125 39.628906 36.574219 C 39.359375 36.742188 39.066406 36.851562 38.789062 36.949219 C 38.785156 36.953125 38.78125 36.953125 38.777344 36.953125 C 38.753906 36.964844 38.726562 36.972656 38.691406 36.980469 C 38.640625 37 38.582031 37.019531 38.53125 37.035156 C 38.257812 37.132812 38.074219 37.390625 38.074219 37.679688 L 38.074219 39.730469 C 38.074219 39.960938 37.855469 39.996094 37.726562 39.996094 C 37.597656 39.996094 37.378906 39.960938 37.378906 39.730469 L 37.378906 37.394531 C 37.378906 37.195312 37.433594 37.019531 37.535156 36.871094 C 37.730469 36.597656 37.960938 36.507812 38.382812 36.363281 C 38.597656 36.289062 38.84375 36.207031 39.09375 36.078125 C 39.984375 35.617188 39.984375 34.691406 39.984375 34.292969 C 39.984375 33.050781 38.972656 32.039062 37.726562 32.039062 C 36.484375 32.039062 35.46875 33.050781 35.46875 34.292969 C 35.46875 34.648438 35.25 34.703125 35.121094 34.703125 C 34.992188 34.703125 34.773438 34.648438 34.773438 34.292969 C 34.773438 32.664062 36.097656 31.339844 37.726562 31.339844 Z M 37.726562 41.65625 C 36.671875 41.65625 35.8125 42.515625 35.8125 43.570312 C 35.8125 44.625 36.671875 45.484375 37.726562 45.484375 C 38.78125 45.484375 39.640625 44.625 39.640625 43.570312 C 39.640625 42.515625 38.78125 41.65625 37.726562 41.65625 Z M 37.726562 44.113281 C 37.425781 44.113281 37.183594 43.871094 37.183594 43.570312 C 37.183594 43.273438 37.429688 43.027344 37.726562 43.027344 C 38.027344 43.027344 38.269531 43.273438 38.269531 43.570312 C 38.269531 43.871094 38.027344 44.113281 37.726562 44.113281 Z M 53.351562 34.234375 C 52.140625 34.234375 51.160156 35.21875 51.160156 36.425781 C 51.160156 37.632812 52.140625 38.617188 53.351562 38.617188 C 54.558594 38.617188 55.539062 37.632812 55.539062 36.425781 C 55.539062 35.21875 54.558594 34.234375 53.351562 34.234375 Z M 53.351562 37.246094 C 52.898438 37.246094 52.53125 36.878906 52.53125 36.425781 C 52.53125 35.972656 52.898438 35.605469 53.351562 35.605469 C 53.800781 35.605469 54.167969 35.972656 54.167969 36.425781 C 54.167969 36.878906 53.800781 37.246094 53.351562 37.246094 Z M 53.351562 33.191406 C 54.386719 33.191406 55.230469 32.347656 55.230469 31.3125 L 55.230469 26.058594 C 55.230469 25.023438 54.386719 24.179688 53.351562 24.179688 C 52.316406 24.179688 51.472656 25.023438 51.472656 26.058594 L 51.472656 31.3125 C 51.472656 32.347656 52.316406 33.191406 53.351562 33.191406 Z M 52.84375 26.058594 C 52.84375 25.78125 53.070312 25.550781 53.351562 25.550781 C 53.628906 25.550781 53.859375 25.78125 53.859375 26.058594 L 53.859375 31.3125 C 53.859375 31.589844 53.628906 31.820312 53.351562 31.820312 C 53.070312 31.820312 52.84375 31.589844 52.84375 31.3125 Z M 52.84375 26.058594 " fill-opacity="1" fill-rule="nonzero"/></g></svg>