<svg xmlns="http://www.w3.org/2000/svg" xmlns:xlink="http://www.w3.org/1999/xlink" width="100" zoomAndPan="magnify" viewBox="0 0 75 74.999997" height="100" preserveAspectRatio="xMidYMid meet" version="1.0"><defs><clipPath id="8b6fa3bf39"><path d="M 11.6875 12.269531 L 63.4375 12.269531 L 63.4375 62.519531 L 11.6875 62.519531 Z M 11.6875 12.269531 " clip-rule="nonzero"/></clipPath></defs><g clip-path="url(#8b6fa3bf39)"><path fill="#ef1c24" d="M 22.167969 30.59375 L 22.167969 35.75 C 22.167969 36.503906 21.558594 37.117188 20.804688 37.125 L 13.082031 37.199219 C 12.714844 37.203125 12.363281 37.058594 12.101562 36.800781 C 11.839844 36.542969 11.691406 36.191406 11.691406 35.824219 L 11.691406 23.640625 C 11.691406 22.882812 12.308594 22.265625 13.070312 22.265625 L 20.792969 22.265625 C 21.550781 22.265625 22.167969 22.882812 22.167969 23.640625 L 22.167969 28.871094 L 26.847656 28.871094 C 28.230469 28.871094 29.347656 29.992188 29.347656 31.375 L 29.347656 35.621094 C 29.347656 36.050781 29.699219 36.402344 30.132812 36.402344 L 36.636719 36.402344 L 36.636719 27.332031 C 36.636719 27.269531 36.644531 27.210938 36.65625 27.152344 L 33.625 27.125 C 32.871094 27.117188 32.261719 26.503906 32.261719 25.75 L 32.261719 13.640625 C 32.261719 12.882812 32.878906 12.265625 33.636719 12.265625 L 41.359375 12.265625 C 42.121094 12.265625 42.734375 12.882812 42.734375 13.640625 L 42.734375 25.824219 C 42.734375 26.191406 42.589844 26.542969 42.328125 26.800781 C 42.066406 27.058594 41.714844 27.203125 41.347656 27.199219 L 38.34375 27.171875 C 38.355469 27.222656 38.359375 27.277344 38.359375 27.332031 L 38.359375 36.402344 L 44.863281 36.402344 C 45.296875 36.402344 45.648438 36.050781 45.648438 35.617188 L 45.648438 31.375 C 45.648438 29.992188 46.769531 28.871094 48.152344 28.871094 L 52.828125 28.871094 L 52.828125 23.640625 C 52.828125 22.882812 53.445312 22.265625 54.207031 22.265625 L 61.929688 22.265625 C 62.6875 22.265625 63.304688 22.882812 63.304688 23.640625 L 63.304688 35.75 C 63.304688 36.503906 62.695312 37.117188 61.941406 37.125 L 54.21875 37.199219 C 53.851562 37.203125 53.5 37.058594 53.238281 36.800781 C 52.976562 36.542969 52.828125 36.191406 52.828125 35.824219 L 52.828125 30.59375 L 48.152344 30.59375 C 47.71875 30.59375 47.367188 30.941406 47.367188 31.375 L 47.367188 35.621094 C 47.367188 37.003906 46.246094 38.125 44.863281 38.125 L 38.359375 38.125 L 38.359375 46.378906 C 38.078125 46.339844 37.789062 46.324219 37.5 46.324219 C 37.207031 46.324219 36.921875 46.339844 36.636719 46.378906 L 36.636719 38.125 L 30.132812 38.125 C 28.75 38.125 27.628906 37.003906 27.628906 35.621094 L 27.628906 31.375 C 27.628906 30.941406 27.277344 30.59375 26.847656 30.59375 Z M 18.542969 32.460938 L 15.316406 32.460938 C 14.84375 32.460938 14.457031 32.84375 14.457031 33.320312 C 14.457031 33.792969 14.84375 34.179688 15.316406 34.179688 L 18.542969 34.179688 C 19.019531 34.179688 19.402344 33.792969 19.402344 33.320312 C 19.402344 32.84375 19.019531 32.460938 18.542969 32.460938 Z M 59.679688 32.460938 L 56.453125 32.460938 C 55.980469 32.460938 55.59375 32.84375 55.59375 33.320312 C 55.59375 33.792969 55.980469 34.179688 56.453125 34.179688 L 59.679688 34.179688 C 60.152344 34.179688 60.539062 33.792969 60.539062 33.320312 C 60.539062 32.84375 60.152344 32.460938 59.679688 32.460938 Z M 35.886719 20.589844 L 39.109375 20.589844 C 39.585938 20.589844 39.972656 20.207031 39.972656 19.730469 C 39.972656 19.257812 39.585938 18.871094 39.109375 18.871094 L 35.886719 18.871094 C 35.410156 18.871094 35.027344 19.257812 35.027344 19.730469 C 35.027344 20.207031 35.410156 20.589844 35.886719 20.589844 Z M 18.542969 28.871094 L 15.316406 28.871094 C 14.84375 28.871094 14.457031 29.257812 14.457031 29.730469 C 14.457031 30.207031 14.84375 30.59375 15.316406 30.59375 L 18.542969 30.59375 C 19.019531 30.59375 19.402344 30.207031 19.402344 29.730469 C 19.402344 29.257812 19.019531 28.871094 18.542969 28.871094 Z M 18.542969 25.285156 L 15.316406 25.285156 C 14.84375 25.285156 14.457031 25.667969 14.457031 26.144531 C 14.457031 26.617188 14.84375 27.003906 15.316406 27.003906 L 18.542969 27.003906 C 19.019531 27.003906 19.402344 26.617188 19.402344 26.144531 C 19.402344 25.667969 19.019531 25.285156 18.542969 25.285156 Z M 59.679688 28.871094 L 56.453125 28.871094 C 55.980469 28.871094 55.59375 29.257812 55.59375 29.730469 C 55.59375 30.207031 55.980469 30.59375 56.453125 30.59375 L 59.679688 30.59375 C 60.152344 30.59375 60.539062 30.207031 60.539062 29.730469 C 60.539062 29.257812 60.152344 28.871094 59.679688 28.871094 Z M 35.886719 24.179688 L 39.109375 24.179688 C 39.585938 24.179688 39.972656 23.792969 39.972656 23.320312 C 39.972656 22.84375 39.585938 22.460938 39.109375 22.460938 L 35.886719 22.460938 C 35.410156 22.460938 35.027344 22.84375 35.027344 23.320312 C 35.027344 23.792969 35.410156 24.179688 35.886719 24.179688 Z M 35.886719 17.003906 L 39.109375 17.003906 C 39.585938 17.003906 39.972656 16.617188 39.972656 16.144531 C 39.972656 15.667969 39.585938 15.28125 39.109375 15.28125 L 35.886719 15.28125 C 35.410156 15.28125 35.027344 15.667969 35.027344 16.144531 C 35.027344 16.617188 35.410156 17.003906 35.886719 17.003906 Z M 59.679688 25.285156 L 56.453125 25.285156 C 55.980469 25.285156 55.59375 25.667969 55.59375 26.144531 C 55.59375 26.617188 55.980469 27.003906 56.453125 27.003906 L 59.679688 27.003906 C 60.152344 27.003906 60.539062 26.617188 60.539062 26.144531 C 60.539062 25.667969 60.152344 25.285156 59.679688 25.285156 Z M 27.617188 52.917969 C 27.203125 52.855469 26.886719 52.496094 26.886719 52.066406 C 26.886719 51.589844 27.273438 51.207031 27.746094 51.207031 L 32.925781 51.207031 C 33.625 49.359375 35.410156 48.042969 37.5 48.042969 C 39.589844 48.042969 41.375 49.359375 42.070312 51.207031 L 47.25 51.207031 C 47.726562 51.207031 48.109375 51.589844 48.109375 52.066406 C 48.109375 52.496094 47.792969 52.855469 47.378906 52.917969 C 47.335938 52.910156 47.292969 52.90625 47.25 52.90625 L 40.394531 52.90625 L 39.125 51.300781 C 38.933594 51.054688 38.625 50.9375 38.316406 50.984375 C 38.011719 51.03125 37.753906 51.238281 37.644531 51.527344 L 36.664062 54.121094 L 35.921875 53.21875 C 35.757812 53.019531 35.515625 52.90625 35.257812 52.90625 L 27.746094 52.90625 C 27.703125 52.90625 27.660156 52.910156 27.617188 52.917969 Z M 42.082031 54.625 C 41.390625 56.488281 39.597656 57.816406 37.5 57.816406 C 35.398438 57.816406 33.605469 56.488281 32.914062 54.625 L 34.851562 54.625 L 36.28125 56.359375 C 36.476562 56.597656 36.78125 56.710938 37.085938 56.660156 C 37.386719 56.609375 37.640625 56.402344 37.75 56.117188 L 38.71875 53.558594 L 39.304688 54.300781 C 39.46875 54.507812 39.714844 54.625 39.980469 54.625 Z M 55.5625 42.875 C 55.226562 42.539062 55.226562 41.996094 55.5625 41.660156 C 55.898438 41.324219 56.441406 41.324219 56.777344 41.660156 C 59.441406 44.324219 61.089844 48.003906 61.089844 52.066406 C 61.089844 56.128906 59.441406 59.808594 56.777344 62.472656 C 56.441406 62.808594 55.898438 62.808594 55.5625 62.472656 C 55.226562 62.136719 55.226562 61.589844 55.5625 61.253906 C 57.914062 58.902344 59.371094 55.652344 59.371094 52.066406 C 59.371094 48.476562 57.914062 45.230469 55.5625 42.875 Z M 52.621094 45.816406 C 52.285156 45.480469 52.285156 44.933594 52.621094 44.597656 C 52.957031 44.261719 53.503906 44.261719 53.839844 44.597656 C 55.75 46.511719 56.933594 49.152344 56.933594 52.066406 C 56.933594 54.980469 55.75 57.621094 53.839844 59.53125 C 53.503906 59.867188 52.957031 59.867188 52.621094 59.53125 C 52.285156 59.195312 52.285156 58.652344 52.621094 58.316406 C 54.222656 56.714844 55.214844 54.503906 55.214844 52.066406 C 55.214844 49.625 54.222656 47.414062 52.621094 45.816406 Z M 49.683594 48.753906 C 49.347656 48.417969 49.347656 47.875 49.683594 47.539062 C 50.019531 47.203125 50.5625 47.203125 50.898438 47.539062 C 52.058594 48.695312 52.777344 50.296875 52.777344 52.066406 C 52.777344 53.832031 52.058594 55.433594 50.898438 56.59375 C 50.5625 56.929688 50.019531 56.929688 49.683594 56.59375 C 49.347656 56.257812 49.347656 55.710938 49.683594 55.375 C 50.53125 54.527344 51.054688 53.359375 51.054688 52.066406 C 51.054688 50.773438 50.53125 49.601562 49.683594 48.753906 Z M 18.21875 41.660156 C 18.554688 41.324219 19.101562 41.324219 19.4375 41.660156 C 19.769531 41.996094 19.769531 42.539062 19.4375 42.875 C 17.082031 45.230469 15.625 48.476562 15.625 52.066406 C 15.625 55.652344 17.082031 58.902344 19.4375 61.253906 C 19.769531 61.589844 19.769531 62.136719 19.4375 62.472656 C 19.101562 62.808594 18.554688 62.808594 18.21875 62.472656 C 15.554688 59.808594 13.90625 56.128906 13.90625 52.066406 C 13.90625 48.003906 15.554688 44.324219 18.21875 41.660156 Z M 21.160156 44.597656 C 21.496094 44.261719 22.039062 44.261719 22.375 44.597656 C 22.710938 44.933594 22.710938 45.480469 22.375 45.816406 C 20.773438 47.414062 19.785156 49.625 19.785156 52.066406 C 19.785156 54.503906 20.773438 56.714844 22.375 58.316406 C 22.710938 58.652344 22.710938 59.195312 22.375 59.53125 C 22.039062 59.867188 21.496094 59.867188 21.160156 59.53125 C 19.246094 57.621094 18.0625 54.980469 18.0625 52.066406 C 18.0625 49.152344 19.246094 46.511719 21.160156 44.597656 Z M 24.097656 47.539062 C 24.433594 47.203125 24.980469 47.203125 25.3125 47.539062 C 25.648438 47.875 25.648438 48.417969 25.3125 48.753906 C 24.464844 49.601562 23.941406 50.773438 23.941406 52.066406 C 23.941406 53.359375 24.464844 54.527344 25.3125 55.375 C 25.648438 55.710938 25.648438 56.257812 25.3125 56.59375 C 24.980469 56.929688 24.433594 56.929688 24.097656 56.59375 C 22.9375 55.433594 22.222656 53.832031 22.222656 52.066406 C 22.222656 50.296875 22.9375 48.695312 24.097656 47.539062 Z M 24.097656 47.539062 " fill-opacity="1" fill-rule="evenodd"/></g></svg>