<svg xmlns="http://www.w3.org/2000/svg" xmlns:xlink="http://www.w3.org/1999/xlink" width="100" zoomAndPan="magnify" viewBox="0 0 75 74.999997" height="100" preserveAspectRatio="xMidYMid meet" version="1.0"><defs><clipPath id="9483b0ae1d"><path d="M 14.363281 7.5 L 60.863281 7.5 L 60.863281 67.5 L 14.363281 67.5 Z M 14.363281 7.5 " clip-rule="nonzero"/></clipPath></defs><g clip-path="url(#9483b0ae1d)"><path fill="#ef1c24" d="M 59.769531 51.351562 C 59.214844 50.796875 58.472656 50.488281 57.679688 50.488281 C 56.992188 50.488281 56.34375 50.722656 55.820312 51.148438 C 55.710938 50.984375 55.589844 50.832031 55.449219 50.695312 C 54.894531 50.140625 54.152344 49.832031 53.359375 49.832031 C 52.566406 49.832031 51.828125 50.136719 51.269531 50.695312 L 51.191406 50.773438 C 51.082031 50.617188 50.964844 50.46875 50.832031 50.335938 C 50.273438 49.78125 49.53125 49.472656 48.742188 49.472656 C 47.949219 49.472656 47.207031 49.777344 46.652344 50.335938 L 40.898438 56.085938 C 38.066406 55.460938 35.851562 54.816406 33.085938 53.8125 C 30.492188 52.871094 28.007812 52.59375 25.347656 52.949219 L 25.5 52.382812 C 25.734375 51.519531 25.21875 50.632812 24.359375 50.402344 L 20.050781 49.246094 C 19.632812 49.132812 19.199219 49.191406 18.824219 49.410156 C 18.449219 49.625 18.183594 49.972656 18.070312 50.390625 L 14.421875 64.003906 C 14.3125 64.421875 14.371094 64.859375 14.585938 65.230469 C 14.804688 65.605469 15.152344 65.875 15.566406 65.984375 L 19.875 67.140625 C 20.015625 67.175781 20.15625 67.195312 20.292969 67.195312 C 21.007812 67.195312 21.664062 66.71875 21.855469 65.996094 L 22.082031 65.15625 C 26.414062 66.53125 31.527344 67.480469 36.550781 67.480469 C 43.058594 67.480469 49.414062 65.890625 53.730469 61.570312 L 59.769531 55.53125 C 60.328125 54.976562 60.632812 54.230469 60.632812 53.441406 C 60.632812 52.652344 60.328125 51.910156 59.769531 51.351562 Z M 53.359375 51.328125 C 53.753906 51.328125 54.121094 51.476562 54.394531 51.75 C 54.535156 51.890625 54.640625 52.050781 54.710938 52.230469 L 48.40625 58.539062 C 48.160156 57.882812 47.691406 57.332031 47.085938 56.992188 L 52.328125 51.75 C 52.601562 51.476562 52.96875 51.328125 53.359375 51.328125 Z M 47.707031 51.390625 C 48.277344 50.824219 49.207031 50.824219 49.777344 51.390625 C 49.914062 51.53125 50.019531 51.691406 50.09375 51.871094 L 45.359375 56.605469 C 44.425781 56.59375 43.546875 56.53125 42.683594 56.414062 Z M 20.261719 65.699219 L 15.953125 64.542969 C 15.914062 64.53125 15.890625 64.507812 15.878906 64.484375 C 15.867188 64.464844 15.855469 64.433594 15.867188 64.390625 L 19.511719 50.777344 C 19.523438 50.738281 19.550781 50.714844 19.570312 50.703125 C 19.585938 50.695312 19.609375 50.6875 19.632812 50.6875 C 19.644531 50.6875 19.65625 50.6875 19.664062 50.691406 L 23.972656 51.84375 C 24.011719 51.855469 24.035156 51.882812 24.046875 51.902344 C 24.058594 51.925781 24.070312 51.957031 24.0625 51.996094 L 20.414062 65.609375 C 20.394531 65.675781 20.324219 65.714844 20.261719 65.699219 Z M 58.714844 54.476562 L 52.675781 60.515625 C 49.410156 63.78125 44.433594 65.660156 38.28125 65.949219 C 33.316406 66.179688 27.71875 65.386719 22.46875 63.714844 L 24.929688 54.53125 C 27.582031 54.070312 30.019531 54.289062 32.578125 55.21875 C 35.503906 56.28125 37.828125 56.953125 40.867188 57.609375 C 42.417969 57.945312 43.929688 58.101562 45.632812 58.101562 C 46.4375 58.101562 47.09375 58.757812 47.09375 59.5625 C 47.09375 60.371094 46.4375 61.027344 45.632812 61.027344 C 42.269531 61.027344 36.558594 59.769531 33.699219 58.644531 C 33.316406 58.496094 32.882812 58.683594 32.734375 59.066406 C 32.582031 59.449219 32.769531 59.886719 33.15625 60.035156 C 36.136719 61.207031 42.105469 62.519531 45.632812 62.519531 C 46.871094 62.519531 47.933594 61.753906 48.375 60.667969 C 48.402344 60.648438 48.429688 60.625 48.453125 60.601562 L 56.648438 52.410156 C 56.921875 52.132812 57.289062 51.984375 57.679688 51.984375 C 58.074219 51.984375 58.441406 52.136719 58.714844 52.410156 C 58.988281 52.683594 59.140625 53.050781 59.140625 53.441406 C 59.140625 53.835938 58.988281 54.199219 58.714844 54.476562 Z M 30.824219 29.992188 L 32.035156 30.175781 C 32.128906 30.453125 32.242188 30.71875 32.367188 30.980469 L 31.644531 31.964844 C 31.425781 32.265625 31.457031 32.675781 31.714844 32.9375 L 33.617188 34.839844 C 33.878906 35.101562 34.292969 35.132812 34.589844 34.914062 L 35.574219 34.1875 C 35.835938 34.316406 36.105469 34.425781 36.378906 34.519531 L 36.5625 35.730469 C 36.621094 36.09375 36.933594 36.363281 37.300781 36.363281 L 39.992188 36.363281 C 40.359375 36.363281 40.671875 36.09375 40.730469 35.730469 L 40.914062 34.519531 C 41.1875 34.425781 41.457031 34.316406 41.71875 34.1875 L 42.703125 34.914062 C 43 35.132812 43.410156 35.097656 43.671875 34.839844 L 45.574219 32.9375 C 45.835938 32.675781 45.867188 32.265625 45.648438 31.964844 L 44.921875 30.980469 C 45.050781 30.71875 45.164062 30.453125 45.257812 30.175781 L 46.464844 29.992188 C 46.832031 29.9375 47.101562 29.621094 47.101562 29.253906 L 47.101562 26.566406 C 47.101562 26.195312 46.832031 25.882812 46.464844 25.828125 L 45.257812 25.644531 C 45.164062 25.367188 45.050781 25.097656 44.921875 24.839844 L 45.648438 23.851562 C 45.867188 23.554688 45.835938 23.144531 45.574219 22.882812 L 43.671875 20.980469 C 43.410156 20.71875 43 20.6875 42.703125 20.90625 L 41.71875 21.632812 C 41.457031 21.503906 41.1875 21.394531 40.914062 21.300781 L 40.730469 20.089844 C 40.671875 19.726562 40.359375 19.457031 39.992188 19.457031 L 37.300781 19.457031 C 36.933594 19.457031 36.621094 19.726562 36.566406 20.089844 L 36.378906 21.300781 C 36.105469 21.394531 35.835938 21.503906 35.574219 21.632812 L 34.589844 20.90625 C 34.292969 20.6875 33.882812 20.71875 33.621094 20.980469 L 31.71875 22.882812 C 31.457031 23.144531 31.425781 23.554688 31.644531 23.851562 L 32.371094 24.839844 C 32.242188 25.097656 32.132812 25.367188 32.035156 25.644531 L 30.828125 25.828125 C 30.460938 25.882812 30.191406 26.195312 30.191406 26.566406 L 30.191406 29.253906 C 30.191406 29.625 30.460938 29.9375 30.824219 29.992188 Z M 31.6875 27.207031 L 32.726562 27.046875 C 33.019531 27.003906 33.257812 26.789062 33.335938 26.5 C 33.460938 26.027344 33.648438 25.574219 33.894531 25.148438 C 34.042969 24.890625 34.027344 24.570312 33.851562 24.332031 L 33.226562 23.484375 L 34.222656 22.488281 L 35.070312 23.113281 C 35.3125 23.289062 35.632812 23.304688 35.890625 23.15625 C 36.3125 22.910156 36.765625 22.722656 37.242188 22.59375 C 37.527344 22.519531 37.742188 22.28125 37.789062 21.984375 L 37.945312 20.945312 L 39.351562 20.945312 L 39.511719 21.984375 C 39.554688 22.277344 39.769531 22.519531 40.058594 22.59375 C 40.53125 22.71875 40.984375 22.910156 41.410156 23.15625 C 41.667969 23.304688 41.988281 23.285156 42.226562 23.113281 L 43.074219 22.488281 L 44.070312 23.484375 L 43.445312 24.332031 C 43.269531 24.570312 43.253906 24.894531 43.402344 25.148438 C 43.648438 25.570312 43.835938 26.027344 43.964844 26.5 C 44.039062 26.785156 44.277344 27 44.574219 27.046875 L 45.613281 27.203125 L 45.613281 28.613281 L 44.574219 28.769531 C 44.277344 28.8125 44.039062 29.03125 43.964844 29.316406 C 43.835938 29.789062 43.648438 30.242188 43.402344 30.667969 C 43.253906 30.925781 43.269531 31.246094 43.445312 31.484375 L 44.070312 32.332031 L 43.074219 33.328125 L 42.226562 32.707031 C 41.984375 32.527344 41.664062 32.511719 41.410156 32.660156 C 40.984375 32.910156 40.53125 33.097656 40.058594 33.222656 C 39.769531 33.296875 39.554688 33.535156 39.511719 33.832031 L 39.351562 34.871094 L 37.945312 34.871094 L 37.789062 33.832031 C 37.742188 33.539062 37.527344 33.296875 37.242188 33.222656 C 36.765625 33.097656 36.3125 32.910156 35.890625 32.660156 C 35.632812 32.511719 35.3125 32.53125 35.070312 32.707031 L 34.222656 33.328125 L 33.226562 32.332031 L 33.851562 31.484375 C 34.027344 31.246094 34.042969 30.925781 33.894531 30.667969 C 33.648438 30.246094 33.460938 29.789062 33.335938 29.316406 C 33.257812 29.03125 33.019531 28.8125 32.726562 28.769531 L 31.6875 28.613281 Z M 38.648438 32.191406 C 41.007812 32.191406 42.929688 30.273438 42.929688 27.910156 C 42.929688 25.546875 41.007812 23.625 38.648438 23.625 C 36.285156 23.625 34.363281 25.546875 34.363281 27.910156 C 34.363281 30.269531 36.285156 32.191406 38.648438 32.191406 Z M 38.648438 25.121094 C 40.1875 25.121094 41.4375 26.371094 41.4375 27.910156 C 41.4375 29.449219 40.1875 30.699219 38.648438 30.699219 C 37.109375 30.699219 35.855469 29.449219 35.855469 27.910156 C 35.855469 26.371094 37.109375 25.121094 38.648438 25.121094 Z M 27.222656 33.03125 L 20.707031 33.03125 C 20.296875 33.03125 19.960938 33.367188 19.960938 33.777344 L 19.960938 37.1875 C 18.972656 37.507812 18.257812 38.433594 18.257812 39.523438 C 18.257812 40.875 19.355469 41.976562 20.707031 41.976562 C 22.0625 41.976562 23.160156 40.875 23.160156 39.523438 C 23.160156 38.433594 22.441406 37.503906 21.453125 37.1875 L 21.453125 34.527344 L 27.222656 34.527344 L 27.222656 35.796875 C 27.222656 37.746094 28.808594 39.335938 30.761719 39.335938 L 32.03125 39.335938 L 32.03125 45.101562 L 29.367188 45.101562 C 29.050781 44.113281 28.125 43.398438 27.03125 43.398438 C 25.679688 43.398438 24.582031 44.496094 24.582031 45.847656 C 24.582031 47.199219 25.679688 48.300781 27.03125 48.300781 C 28.125 48.300781 29.050781 47.582031 29.367188 46.59375 L 32.777344 46.59375 C 33.191406 46.59375 33.523438 46.261719 33.523438 45.847656 L 33.523438 39.335938 L 37.902344 39.335938 L 37.902344 43.511719 C 36.914062 43.828125 36.195312 44.753906 36.195312 45.847656 C 36.195312 47.199219 37.296875 48.300781 38.648438 48.300781 C 40 48.300781 41.097656 47.199219 41.097656 45.847656 C 41.097656 44.753906 40.382812 43.828125 39.394531 43.511719 L 39.394531 39.335938 L 43.769531 39.335938 L 43.769531 45.847656 C 43.769531 46.261719 44.105469 46.59375 44.515625 46.59375 L 47.925781 46.59375 C 48.242188 47.582031 49.167969 48.300781 50.261719 48.300781 C 51.613281 48.300781 52.714844 47.199219 52.714844 45.847656 C 52.714844 44.496094 51.613281 43.398438 50.261719 43.398438 C 49.167969 43.398438 48.242188 44.113281 47.925781 45.101562 L 45.261719 45.101562 L 45.261719 39.335938 L 46.535156 39.335938 C 48.484375 39.335938 50.074219 37.746094 50.074219 35.796875 L 50.074219 34.527344 L 55.839844 34.527344 L 55.839844 37.1875 C 54.851562 37.507812 54.132812 38.433594 54.132812 39.523438 C 54.132812 40.875 55.234375 41.976562 56.585938 41.976562 C 57.9375 41.976562 59.039062 40.875 59.039062 39.523438 C 59.039062 38.433594 58.320312 37.503906 57.332031 37.1875 L 57.332031 33.777344 C 57.332031 33.367188 56.996094 33.03125 56.585938 33.03125 L 50.074219 33.03125 L 50.074219 28.65625 L 54.25 28.65625 C 54.566406 29.644531 55.492188 30.363281 56.585938 30.363281 C 57.9375 30.363281 59.035156 29.261719 59.035156 27.910156 C 59.035156 26.558594 57.9375 25.457031 56.585938 25.457031 C 55.492188 25.457031 54.566406 26.175781 54.25 27.164062 L 50.074219 27.164062 L 50.074219 22.785156 L 56.585938 22.785156 C 56.996094 22.785156 57.332031 22.453125 57.332031 22.039062 L 57.332031 18.628906 C 58.320312 18.3125 59.039062 17.386719 59.039062 16.296875 C 59.039062 14.941406 57.9375 13.84375 56.585938 13.84375 C 55.234375 13.84375 54.132812 14.941406 54.132812 16.296875 C 54.132812 17.386719 54.851562 18.316406 55.839844 18.628906 L 55.839844 21.292969 L 50.074219 21.292969 L 50.074219 20.023438 C 50.074219 18.070312 48.484375 16.484375 46.535156 16.484375 L 45.261719 16.484375 L 45.261719 10.71875 L 47.925781 10.71875 C 48.242188 11.703125 49.167969 12.421875 50.261719 12.421875 C 51.613281 12.421875 52.714844 11.324219 52.714844 9.972656 C 52.714844 8.617188 51.613281 7.519531 50.261719 7.519531 C 49.167969 7.519531 48.242188 8.238281 47.925781 9.222656 L 44.515625 9.222656 C 44.105469 9.222656 43.769531 9.558594 43.769531 9.972656 L 43.769531 16.484375 L 39.394531 16.484375 L 39.394531 12.304688 C 40.382812 11.988281 41.097656 11.0625 41.097656 9.972656 C 41.097656 8.617188 40 7.519531 38.648438 7.519531 C 37.296875 7.519531 36.195312 8.617188 36.195312 9.972656 C 36.195312 11.0625 36.914062 11.988281 37.902344 12.304688 L 37.902344 16.484375 L 33.523438 16.484375 L 33.523438 9.972656 C 33.523438 9.558594 33.191406 9.222656 32.777344 9.222656 L 29.367188 9.222656 C 29.050781 8.238281 28.125 7.519531 27.03125 7.519531 C 25.679688 7.519531 24.582031 8.617188 24.582031 9.972656 C 24.582031 11.324219 25.679688 12.421875 27.03125 12.421875 C 28.125 12.421875 29.050781 11.703125 29.367188 10.71875 L 32.03125 10.71875 L 32.03125 16.484375 L 30.761719 16.484375 C 28.8125 16.484375 27.222656 18.070312 27.222656 20.023438 L 27.222656 21.292969 L 21.453125 21.292969 L 21.453125 18.628906 C 22.441406 18.3125 23.160156 17.386719 23.160156 16.296875 C 23.160156 14.941406 22.0625 13.84375 20.707031 13.84375 C 19.355469 13.84375 18.257812 14.941406 18.257812 16.296875 C 18.257812 17.386719 18.972656 18.316406 19.960938 18.628906 L 19.960938 22.039062 C 19.960938 22.453125 20.296875 22.785156 20.707031 22.785156 L 27.222656 22.785156 L 27.222656 27.164062 L 23.042969 27.164062 C 22.726562 26.175781 21.800781 25.457031 20.710938 25.457031 C 19.355469 25.457031 18.257812 26.558594 18.257812 27.910156 C 18.257812 29.261719 19.355469 30.363281 20.710938 30.363281 C 21.800781 30.363281 22.730469 29.644531 23.042969 28.65625 L 27.222656 28.65625 Z M 20.707031 40.484375 C 20.179688 40.484375 19.75 40.054688 19.75 39.523438 C 19.75 38.996094 20.179688 38.566406 20.707031 38.566406 C 21.238281 38.566406 21.667969 38.996094 21.667969 39.523438 C 21.667969 40.054688 21.238281 40.484375 20.707031 40.484375 Z M 27.03125 46.808594 C 26.503906 46.808594 26.074219 46.378906 26.074219 45.847656 C 26.074219 45.320312 26.503906 44.890625 27.03125 44.890625 C 27.5625 44.890625 27.992188 45.320312 27.992188 45.847656 C 27.992188 46.378906 27.5625 46.808594 27.03125 46.808594 Z M 38.648438 46.808594 C 38.117188 46.808594 37.6875 46.378906 37.6875 45.847656 C 37.6875 45.320312 38.117188 44.890625 38.648438 44.890625 C 39.175781 44.890625 39.605469 45.320312 39.605469 45.847656 C 39.605469 46.378906 39.175781 46.808594 38.648438 46.808594 Z M 50.261719 44.886719 C 50.789062 44.886719 51.222656 45.320312 51.222656 45.847656 C 51.222656 46.375 50.789062 46.804688 50.261719 46.804688 C 49.734375 46.804688 49.300781 46.375 49.300781 45.847656 C 49.300781 45.320312 49.734375 44.886719 50.261719 44.886719 Z M 56.585938 40.484375 C 56.058594 40.484375 55.628906 40.054688 55.628906 39.523438 C 55.628906 38.996094 56.058594 38.566406 56.585938 38.566406 C 57.113281 38.566406 57.546875 38.996094 57.546875 39.523438 C 57.546875 40.054688 57.113281 40.484375 56.585938 40.484375 Z M 56.585938 26.949219 C 57.113281 26.949219 57.546875 27.382812 57.546875 27.910156 C 57.546875 28.4375 57.113281 28.867188 56.585938 28.867188 C 56.058594 28.867188 55.628906 28.4375 55.628906 27.910156 C 55.625 27.382812 56.054688 26.949219 56.585938 26.949219 Z M 56.585938 15.335938 C 57.113281 15.335938 57.546875 15.765625 57.546875 16.292969 C 57.546875 16.824219 57.113281 17.253906 56.585938 17.253906 C 56.058594 17.253906 55.628906 16.824219 55.628906 16.292969 C 55.625 15.765625 56.054688 15.335938 56.585938 15.335938 Z M 50.261719 9.011719 C 50.789062 9.011719 51.222656 9.441406 51.222656 9.972656 C 51.222656 10.5 50.789062 10.929688 50.261719 10.929688 C 49.734375 10.929688 49.300781 10.5 49.300781 9.972656 C 49.300781 9.441406 49.734375 9.011719 50.261719 9.011719 Z M 38.648438 9.011719 C 39.175781 9.011719 39.605469 9.441406 39.605469 9.972656 C 39.605469 10.5 39.175781 10.929688 38.648438 10.929688 C 38.117188 10.929688 37.6875 10.5 37.6875 9.972656 C 37.6875 9.441406 38.117188 9.011719 38.648438 9.011719 Z M 27.03125 10.929688 C 26.503906 10.929688 26.074219 10.5 26.074219 9.972656 C 26.074219 9.441406 26.503906 9.011719 27.03125 9.011719 C 27.5625 9.011719 27.992188 9.441406 27.992188 9.972656 C 27.992188 10.5 27.5625 10.929688 27.03125 10.929688 Z M 20.707031 15.335938 C 21.238281 15.335938 21.667969 15.765625 21.667969 16.292969 C 21.667969 16.824219 21.238281 17.253906 20.707031 17.253906 C 20.179688 17.253906 19.75 16.824219 19.75 16.292969 C 19.75 15.765625 20.179688 15.335938 20.707031 15.335938 Z M 20.707031 28.867188 C 20.179688 28.867188 19.75 28.4375 19.75 27.910156 C 19.75 27.382812 20.179688 26.949219 20.707031 26.949219 C 21.238281 26.949219 21.667969 27.382812 21.667969 27.910156 C 21.667969 28.4375 21.238281 28.867188 20.707031 28.867188 Z M 28.714844 20.023438 C 28.714844 18.894531 29.632812 17.976562 30.761719 17.976562 L 46.535156 17.976562 C 47.660156 17.976562 48.578125 18.894531 48.578125 20.023438 L 48.578125 35.796875 C 48.578125 36.925781 47.660156 37.84375 46.535156 37.84375 L 30.761719 37.84375 C 29.632812 37.84375 28.714844 36.925781 28.714844 35.796875 Z M 28.714844 20.023438 " fill-opacity="1" fill-rule="nonzero"/></g></svg>