<svg xmlns="http://www.w3.org/2000/svg" xmlns:xlink="http://www.w3.org/1999/xlink" width="100" zoomAndPan="magnify" viewBox="0 0 75 74.999997" height="100" preserveAspectRatio="xMidYMid meet" version="1.0"><defs><clipPath id="c6f6a59b5d"><path d="M 7.5 10.386719 L 67.5 10.386719 L 67.5 64.386719 L 7.5 64.386719 Z M 7.5 10.386719 " clip-rule="nonzero"/></clipPath></defs><g clip-path="url(#c6f6a59b5d)"><path fill="#ffffff" d="M 22.179688 51.171875 C 22.125 51.652344 21.71875 52.007812 21.25 52.007812 C 21.214844 52.007812 21.179688 52.003906 21.144531 52 C 20.570312 51.9375 19.976562 51.855469 19.328125 51.753906 C 18.820312 51.671875 18.472656 51.191406 18.554688 50.679688 C 18.636719 50.167969 19.117188 49.820312 19.625 49.902344 C 20.246094 50.003906 20.808594 50.078125 21.351562 50.140625 C 21.863281 50.195312 22.234375 50.660156 22.179688 51.171875 Z M 12.757812 29.117188 C 13.332031 29.363281 13.953125 29.597656 14.601562 29.808594 C 14.699219 29.84375 14.796875 29.855469 14.894531 29.855469 C 15.289062 29.855469 15.65625 29.605469 15.785156 29.210938 C 15.945312 28.71875 15.679688 28.191406 15.1875 28.03125 C 14.589844 27.835938 14.023438 27.621094 13.5 27.394531 C 13.023438 27.191406 12.472656 27.410156 12.269531 27.886719 C 12.0625 28.363281 12.28125 28.914062 12.757812 29.117188 Z M 12.757812 39.53125 C 13.3125 39.769531 13.929688 40.003906 14.601562 40.222656 C 14.699219 40.253906 14.796875 40.269531 14.894531 40.269531 C 15.289062 40.269531 15.65625 40.019531 15.785156 39.625 C 15.945312 39.132812 15.679688 38.605469 15.1875 38.445312 C 14.566406 38.242188 14 38.027344 13.5 37.8125 C 13.023438 37.609375 12.472656 37.828125 12.265625 38.304688 C 12.0625 38.777344 12.28125 39.328125 12.757812 39.53125 Z M 25.832031 31.46875 C 25.90625 31.46875 25.980469 31.46875 26.050781 31.46875 C 26.132812 31.472656 26.210938 31.472656 26.292969 31.472656 C 26.742188 31.472656 27.1875 31.464844 27.628906 31.449219 C 28.144531 31.433594 28.550781 31.003906 28.535156 30.484375 C 28.519531 29.96875 28.085938 29.5625 27.570312 29.578125 C 27.078125 29.59375 26.566406 29.601562 26.074219 29.597656 C 25.992188 29.597656 25.910156 29.597656 25.832031 29.597656 C 25.3125 29.597656 24.894531 30.015625 24.894531 30.53125 C 24.894531 31.050781 25.3125 31.46875 25.832031 31.46875 Z M 32.183594 31.078125 C 32.222656 31.078125 32.265625 31.078125 32.308594 31.070312 C 35.164062 30.679688 37.765625 30.003906 39.832031 29.117188 C 40.308594 28.914062 40.527344 28.363281 40.324219 27.890625 C 40.117188 27.414062 39.566406 27.191406 39.09375 27.398438 C 37.179688 28.21875 34.746094 28.847656 32.054688 29.214844 C 31.542969 29.289062 31.183594 29.757812 31.257812 30.269531 C 31.320312 30.738281 31.722656 31.078125 32.183594 31.078125 Z M 19.328125 30.929688 C 19.957031 31.027344 20.550781 31.113281 21.140625 31.179688 C 21.175781 31.183594 21.214844 31.1875 21.25 31.1875 C 21.71875 31.1875 22.125 30.835938 22.179688 30.359375 C 22.238281 29.84375 21.867188 29.378906 21.355469 29.320312 C 20.792969 29.253906 20.226562 29.175781 19.625 29.078125 C 19.113281 28.996094 18.636719 29.34375 18.554688 29.855469 C 18.46875 30.367188 18.820312 30.847656 19.328125 30.929688 Z M 15.183594 48.851562 C 14.597656 48.664062 14.03125 48.453125 13.5 48.222656 C 13.023438 48.019531 12.472656 48.238281 12.265625 48.710938 C 12.0625 49.1875 12.28125 49.738281 12.757812 49.945312 C 13.34375 50.195312 13.964844 50.429688 14.605469 50.636719 C 14.703125 50.667969 14.800781 50.679688 14.894531 50.679688 C 15.289062 50.679688 15.65625 50.429688 15.785156 50.03125 C 15.945312 49.539062 15.675781 49.011719 15.183594 48.851562 Z M 25.8125 41.878906 C 25.972656 41.882812 26.132812 41.882812 26.296875 41.882812 C 26.742188 41.882812 27.191406 41.875 27.628906 41.863281 C 28.148438 41.847656 28.554688 41.414062 28.535156 40.898438 C 28.519531 40.390625 28.105469 39.988281 27.601562 39.988281 C 27.589844 39.988281 27.582031 39.988281 27.570312 39.988281 C 27.152344 40.003906 26.722656 40.007812 26.296875 40.007812 C 26.148438 40.007812 26 40.007812 25.851562 40.003906 C 25.332031 39.996094 24.90625 40.402344 24.894531 40.921875 C 24.882812 41.441406 25.292969 41.867188 25.8125 41.878906 Z M 27.601562 50.402344 C 27.589844 50.402344 27.582031 50.402344 27.570312 50.402344 C 27.152344 50.414062 26.722656 50.417969 26.296875 50.417969 C 26.148438 50.417969 26 50.417969 25.851562 50.417969 C 25.84375 50.417969 25.835938 50.417969 25.832031 50.417969 C 25.324219 50.417969 24.90625 50.824219 24.894531 51.332031 C 24.882812 51.851562 25.292969 52.277344 25.8125 52.289062 C 25.972656 52.292969 26.132812 52.292969 26.296875 52.292969 C 26.742188 52.292969 27.191406 52.285156 27.628906 52.273438 C 28.148438 52.257812 28.554688 51.824219 28.535156 51.308594 C 28.519531 50.800781 28.105469 50.402344 27.601562 50.402344 Z M 19.328125 41.34375 C 19.90625 41.433594 20.5 41.515625 21.140625 41.589844 C 21.175781 41.59375 21.214844 41.597656 21.25 41.597656 C 21.71875 41.597656 22.125 41.246094 22.179688 40.769531 C 22.238281 40.253906 21.871094 39.789062 21.355469 39.730469 C 20.742188 39.660156 20.175781 39.582031 19.628906 39.492188 C 19.117188 39.414062 18.636719 39.757812 18.554688 40.269531 C 18.472656 40.78125 18.820312 41.261719 19.328125 41.34375 Z M 67.492188 40.984375 C 67.492188 42.804688 66.007812 44.289062 64.1875 44.289062 C 62.6875 44.289062 61.421875 43.289062 61.015625 41.917969 L 56.054688 41.917969 C 55.917969 43.671875 55.390625 45.386719 54.484375 46.953125 C 54.402344 47.09375 54.316406 47.234375 54.230469 47.375 L 61.429688 47.375 C 61.949219 47.375 62.367188 47.792969 62.367188 48.3125 L 62.367188 53.980469 C 63.734375 54.382812 64.734375 55.648438 64.734375 57.148438 C 64.734375 58.96875 63.253906 60.449219 61.433594 60.449219 C 59.609375 60.449219 58.125 58.96875 58.125 57.148438 C 58.125 55.648438 59.125 54.382812 60.496094 53.980469 L 60.496094 49.246094 L 52.769531 49.246094 C 52.277344 49.765625 51.742188 50.234375 51.167969 50.648438 L 53.464844 59.21875 C 53.757812 60.320312 53.605469 61.472656 53.035156 62.464844 C 52.460938 63.460938 51.539062 64.167969 50.4375 64.460938 C 50.070312 64.5625 49.699219 64.609375 49.328125 64.609375 C 48.589844 64.609375 47.855469 64.414062 47.195312 64.03125 C 46.199219 63.460938 45.492188 62.539062 45.195312 61.433594 L 43.011719 53.289062 C 39.886719 55.871094 33.515625 57.5 26.300781 57.5 C 21.417969 57.5 16.8125 56.75 13.335938 55.382812 C 9.578125 53.910156 7.507812 51.84375 7.507812 49.558594 L 7.507812 18.324219 C 7.507812 16.046875 9.582031 13.980469 13.34375 12.507812 C 16.828125 11.140625 21.425781 10.386719 26.296875 10.386719 C 31.164062 10.386719 35.761719 11.140625 39.246094 12.507812 C 43.007812 13.980469 45.078125 16.046875 45.078125 18.324219 L 45.078125 28.738281 C 45.078125 28.847656 45.070312 28.960938 45.0625 29.074219 C 46.820312 29.207031 48.539062 29.734375 50.113281 30.640625 C 51.105469 31.214844 51.992188 31.914062 52.765625 32.71875 L 60.492188 32.71875 L 60.492188 27.984375 C 59.125 27.582031 58.121094 26.3125 58.121094 24.8125 C 58.121094 22.992188 59.605469 21.511719 61.429688 21.511719 C 63.25 21.511719 64.734375 22.992188 64.734375 24.8125 C 64.734375 26.3125 63.730469 27.582031 62.363281 27.984375 L 62.363281 33.652344 C 62.363281 34.171875 61.945312 34.589844 61.425781 34.589844 L 54.234375 34.589844 C 54.871094 35.597656 55.359375 36.707031 55.675781 37.890625 C 55.867188 38.605469 55.992188 39.324219 56.050781 40.042969 L 61.015625 40.042969 C 61.421875 38.675781 62.6875 37.675781 64.1875 37.675781 C 66.007812 37.679688 67.492188 39.160156 67.492188 40.984375 Z M 61.429688 26.25 C 62.21875 26.25 62.859375 25.609375 62.859375 24.816406 C 62.859375 24.027344 62.21875 23.386719 61.429688 23.386719 C 60.640625 23.386719 59.996094 24.027344 59.996094 24.816406 C 59.996094 25.609375 60.636719 26.25 61.429688 26.25 Z M 61.429688 55.71875 C 60.640625 55.71875 59.996094 56.359375 59.996094 57.148438 C 59.996094 57.9375 60.636719 58.578125 61.429688 58.578125 C 62.21875 58.578125 62.859375 57.9375 62.859375 57.148438 C 62.859375 56.359375 62.21875 55.71875 61.429688 55.71875 Z M 9.382812 18.324219 C 9.382812 21.195312 16.328125 24.390625 26.296875 24.390625 C 36.261719 24.390625 43.207031 21.195312 43.207031 18.324219 C 43.207031 15.457031 36.261719 12.261719 26.296875 12.261719 C 16.328125 12.261719 9.382812 15.457031 9.382812 18.324219 Z M 9.382812 28.738281 C 9.382812 31.609375 16.328125 34.804688 26.296875 34.804688 C 29.148438 34.804688 31.957031 34.53125 34.449219 34.011719 C 36.050781 31.773438 38.359375 30.171875 41.054688 29.453125 C 41.753906 29.261719 42.460938 29.140625 43.171875 29.082031 C 43.191406 28.964844 43.207031 28.851562 43.207031 28.738281 L 43.207031 21.878906 C 42.238281 22.726562 40.90625 23.492188 39.246094 24.144531 C 35.765625 25.511719 31.164062 26.265625 26.296875 26.265625 C 21.425781 26.265625 16.828125 25.511719 13.34375 24.144531 C 11.683594 23.492188 10.351562 22.726562 9.382812 21.878906 Z M 9.382812 39.148438 C 9.382812 42.019531 16.328125 45.214844 26.296875 45.214844 C 28.566406 45.214844 30.75 45.046875 32.804688 44.722656 C 32.734375 44.507812 32.667969 44.292969 32.609375 44.074219 C 31.894531 41.402344 32.117188 38.628906 33.230469 36.136719 C 31.042969 36.492188 28.679688 36.675781 26.296875 36.675781 C 21.414062 36.675781 16.808594 35.925781 13.332031 34.5625 C 11.675781 33.910156 10.347656 33.148438 9.382812 32.296875 Z M 26.296875 55.628906 C 32.375 55.628906 37.902344 54.40625 40.933594 52.488281 C 39.980469 52.21875 39.050781 51.832031 38.171875 51.324219 C 37.898438 51.164062 37.632812 50.996094 37.375 50.820312 C 35.847656 51.28125 34.144531 51.640625 32.3125 51.894531 C 32.269531 51.902344 32.226562 51.90625 32.183594 51.90625 C 31.722656 51.90625 31.320312 51.566406 31.257812 51.097656 C 31.183594 50.585938 31.542969 50.113281 32.054688 50.039062 C 33.320312 49.867188 34.515625 49.636719 35.625 49.359375 C 34.792969 48.515625 34.09375 47.554688 33.550781 46.5 C 31.265625 46.886719 28.832031 47.085938 26.296875 47.085938 C 21.414062 47.085938 16.808594 46.335938 13.332031 44.972656 C 11.675781 44.320312 10.351562 43.558594 9.382812 42.707031 L 9.382812 49.558594 C 9.382812 52.429688 16.328125 55.628906 26.296875 55.628906 Z M 49.496094 51.660156 C 48.78125 52.015625 48.023438 52.304688 47.234375 52.515625 C 46.441406 52.730469 45.644531 52.859375 44.84375 52.90625 L 47.003906 60.953125 C 47.167969 61.570312 47.566406 62.089844 48.125 62.410156 C 48.683594 62.734375 49.332031 62.820312 49.949219 62.652344 C 50.566406 62.488281 51.085938 62.089844 51.40625 61.53125 C 51.730469 60.972656 51.816406 60.324219 51.652344 59.703125 Z M 53.867188 38.378906 C 53.171875 35.78125 51.503906 33.609375 49.175781 32.265625 C 47.625 31.371094 45.90625 30.910156 44.160156 30.910156 C 43.285156 30.910156 42.40625 31.027344 41.539062 31.257812 C 38.941406 31.953125 36.769531 33.621094 35.425781 35.949219 C 34.082031 38.277344 33.726562 40.992188 34.421875 43.589844 C 35.117188 46.1875 36.78125 48.355469 39.109375 49.703125 C 40.367188 50.429688 41.734375 50.863281 43.136719 51.003906 C 43.140625 51.003906 43.148438 51.003906 43.152344 51.003906 C 43.320312 51.019531 43.488281 51.035156 43.65625 51.042969 C 43.667969 51.042969 43.679688 51.042969 43.6875 51.042969 C 44.707031 51.089844 45.738281 50.980469 46.75 50.707031 C 49.347656 50.011719 51.519531 48.34375 52.863281 46.015625 C 54.207031 43.6875 54.5625 40.976562 53.867188 38.378906 Z M 65.617188 40.984375 C 65.617188 40.191406 64.976562 39.550781 64.1875 39.550781 C 63.394531 39.550781 62.75 40.191406 62.75 40.984375 C 62.75 41.773438 63.394531 42.417969 64.1875 42.417969 C 64.976562 42.417969 65.617188 41.773438 65.617188 40.984375 Z M 51.664062 38.96875 C 52.777344 43.117188 50.304688 47.394531 46.15625 48.507812 C 45.488281 48.683594 44.8125 48.773438 44.148438 48.773438 C 40.707031 48.773438 37.554688 46.472656 36.621094 43 C 35.511719 38.851562 37.980469 34.574219 42.125 33.464844 C 46.273438 32.351562 50.554688 34.820312 51.664062 38.96875 Z M 49.855469 39.453125 C 49.011719 36.304688 45.761719 34.429688 42.613281 35.273438 C 39.460938 36.117188 37.585938 39.367188 38.433594 42.511719 C 39.277344 45.660156 42.527344 47.539062 45.675781 46.695312 C 48.824219 45.851562 50.699219 42.601562 49.855469 39.453125 Z M 49.855469 39.453125 " fill-opacity="1" fill-rule="nonzero"/></g></svg>