<svg xmlns="http://www.w3.org/2000/svg" xmlns:xlink="http://www.w3.org/1999/xlink" width="100" zoomAndPan="magnify" viewBox="0 0 75 74.999997" height="100" preserveAspectRatio="xMidYMid meet" version="1.0"><defs><clipPath id="3fdb2f0a6d"><path d="M 9.652344 9.652344 L 65.152344 9.652344 L 65.152344 65.152344 L 9.652344 65.152344 Z M 9.652344 9.652344 " clip-rule="nonzero"/></clipPath></defs><g clip-path="url(#3fdb2f0a6d)"><path fill="#ffffff" d="M 25.289062 56.695312 L 25.289062 59.515625 C 25.289062 61.03125 26.585938 62.445312 28.683594 63.507812 C 33.527344 65.953125 41.46875 65.953125 46.308594 63.507812 C 48.40625 62.445312 49.707031 61.03125 49.707031 59.515625 L 49.707031 56.695312 C 47.097656 59.515625 41.867188 60.6875 37.496094 60.6875 C 33.125 60.6875 27.894531 59.515625 25.289062 56.695312 Z M 63.503906 21.941406 L 65.324219 15.152344 C 65.40625 14.839844 65.175781 14.542969 64.855469 14.542969 L 45.675781 14.542969 C 45.355469 14.542969 45.128906 14.839844 45.210938 15.152344 L 47.027344 21.941406 C 47.085938 22.15625 47.273438 22.296875 47.496094 22.296875 L 63.039062 22.296875 C 63.257812 22.296875 63.445312 22.15625 63.503906 21.941406 Z M 11.488281 21.941406 L 9.671875 15.152344 C 9.589844 14.839844 9.816406 14.542969 10.136719 14.542969 L 29.320312 14.542969 C 29.636719 14.542969 29.867188 14.839844 29.785156 15.152344 L 27.964844 21.941406 C 27.90625 22.15625 27.722656 22.296875 27.496094 22.296875 L 11.957031 22.296875 C 11.734375 22.296875 11.546875 22.15625 11.488281 21.941406 Z M 46.917969 13.152344 L 46.917969 12.335938 C 46.917969 12.019531 47.171875 11.761719 47.488281 11.761719 L 57.8125 11.761719 C 58.027344 11.761719 58.210938 11.65625 58.316406 11.464844 L 59.136719 9.953125 C 59.238281 9.765625 59.425781 9.652344 59.640625 9.652344 L 63.042969 9.652344 C 63.355469 9.652344 63.617188 9.910156 63.617188 10.226562 L 63.617188 13.152344 Z M 28.078125 13.152344 L 28.078125 12.335938 C 28.078125 12.019531 27.820312 11.761719 27.503906 11.761719 L 17.179688 11.761719 C 16.96875 11.761719 16.78125 11.65625 16.679688 11.464844 L 15.855469 9.953125 C 15.753906 9.765625 15.566406 9.652344 15.351562 9.652344 L 11.949219 9.652344 C 11.632812 9.652344 11.378906 9.910156 11.378906 10.226562 L 11.378906 13.152344 Z M 28.347656 39.941406 C 28.121094 39.632812 28.1875 39.195312 28.496094 38.96875 C 28.808594 38.738281 29.242188 38.808594 29.46875 39.117188 L 29.601562 39.300781 L 29.601562 30.613281 C 29.601562 30.359375 29.394531 30.148438 29.140625 30.148438 L 20.886719 30.148438 C 19.863281 30.148438 19.03125 29.316406 19.03125 28.296875 L 19.03125 23.691406 L 20.425781 23.691406 L 20.425781 28.296875 C 20.425781 28.546875 20.632812 28.757812 20.886719 28.757812 L 29.140625 28.757812 C 30.160156 28.757812 30.996094 29.589844 30.996094 30.613281 L 30.996094 39.28125 L 31.140625 39.09375 C 31.375 38.789062 31.8125 38.734375 32.113281 38.96875 C 32.417969 39.203125 32.472656 39.636719 32.238281 39.941406 L 30.832031 41.773438 C 30.554688 42.148438 29.992188 42.175781 29.703125 41.785156 L 28.351562 39.941406 Z M 45.527344 39.117188 C 45.75 38.808594 46.1875 38.738281 46.496094 38.96875 C 46.804688 39.195312 46.871094 39.632812 46.644531 39.941406 L 45.289062 41.785156 C 45.003906 42.175781 44.441406 42.148438 44.160156 41.773438 L 42.753906 39.941406 C 42.519531 39.636719 42.574219 39.203125 42.878906 38.96875 C 43.179688 38.734375 43.617188 38.789062 43.851562 39.09375 L 43.996094 39.28125 L 43.996094 30.613281 C 43.996094 29.589844 44.832031 28.757812 45.855469 28.757812 L 54.105469 28.757812 C 54.359375 28.757812 54.570312 28.546875 54.570312 28.296875 L 54.570312 23.691406 L 55.960938 23.691406 L 55.960938 28.296875 C 55.960938 29.316406 55.128906 30.148438 54.105469 30.148438 L 45.855469 30.148438 C 45.597656 30.148438 45.390625 30.359375 45.390625 30.613281 L 45.390625 39.300781 Z M 42.605469 35.140625 C 39.375 34.414062 35.617188 34.414062 32.386719 35.140625 L 32.386719 37.554688 C 32.59375 37.621094 32.785156 37.726562 32.96875 37.867188 C 33.875 38.570312 34.046875 39.878906 33.339844 40.792969 L 31.941406 42.609375 C 31.101562 43.734375 29.417969 43.75 28.578125 42.605469 L 27.226562 40.761719 C 26.542969 39.835938 26.746094 38.527344 27.675781 37.84375 C 27.84375 37.71875 28.023438 37.628906 28.210938 37.5625 L 28.210938 36.683594 C 24.074219 39.023438 24.421875 42.261719 28.683594 44.417969 C 33.527344 46.863281 41.46875 46.863281 46.308594 44.417969 C 50.570312 42.261719 50.917969 39.023438 46.78125 36.683594 L 46.78125 37.5625 C 46.96875 37.628906 47.152344 37.71875 47.320312 37.84375 C 48.25 38.527344 48.449219 39.835938 47.765625 40.761719 L 46.414062 42.605469 C 45.574219 43.75 43.890625 43.734375 43.050781 42.609375 L 41.648438 40.792969 C 40.949219 39.878906 41.117188 38.570312 42.027344 37.867188 C 42.207031 37.726562 42.402344 37.621094 42.605469 37.554688 Z M 25.289062 43.648438 L 25.289062 46.945312 C 25.289062 48.464844 26.585938 49.878906 28.683594 50.9375 C 33.527344 53.382812 41.46875 53.382812 46.308594 50.9375 C 48.40625 49.878906 49.707031 48.464844 49.707031 46.945312 L 49.707031 43.648438 C 47.097656 46.46875 41.867188 47.640625 37.496094 47.640625 C 33.125 47.640625 27.894531 46.46875 25.289062 43.648438 Z M 25.289062 50.175781 L 25.289062 53.46875 C 25.289062 54.984375 26.585938 56.398438 28.683594 57.460938 C 33.527344 59.910156 41.46875 59.910156 46.308594 57.460938 C 48.40625 56.398438 49.707031 54.984375 49.707031 53.46875 L 49.707031 50.175781 C 47.097656 52.992188 41.867188 54.164062 37.496094 54.164062 C 33.125 54.164062 27.894531 52.992188 25.289062 50.175781 Z M 36.761719 57.429688 C 36.378906 57.429688 36.066406 57.121094 36.066406 56.734375 C 36.066406 56.351562 36.378906 56.039062 36.761719 56.039062 L 38.230469 56.039062 C 38.613281 56.039062 38.925781 56.351562 38.925781 56.734375 C 38.925781 57.121094 38.613281 57.429688 38.230469 57.429688 Z M 36.761719 51.054688 C 36.378906 51.054688 36.066406 50.742188 36.066406 50.363281 C 36.066406 49.976562 36.378906 49.664062 36.761719 49.664062 L 38.230469 49.664062 C 38.613281 49.664062 38.925781 49.976562 38.925781 50.363281 C 38.925781 50.742188 38.613281 51.054688 38.230469 51.054688 Z M 36.761719 63.699219 C 36.378906 63.699219 36.066406 63.386719 36.066406 63.003906 C 36.066406 62.617188 36.378906 62.304688 36.761719 62.304688 L 38.230469 62.304688 C 38.613281 62.304688 38.925781 62.617188 38.925781 63.003906 C 38.925781 63.386719 38.613281 63.699219 38.230469 63.699219 Z M 36.761719 63.699219 " fill-opacity="1" fill-rule="nonzero"/></g></svg>