<svg xmlns="http://www.w3.org/2000/svg" xmlns:xlink="http://www.w3.org/1999/xlink" width="100" zoomAndPan="magnify" viewBox="0 0 75 74.999997" height="100" preserveAspectRatio="xMidYMid meet" version="1.0"><defs><clipPath id="aa716721be"><path d="M 9.324219 15.207031 L 65.574219 15.207031 L 65.574219 59.457031 L 9.324219 59.457031 Z M 9.324219 15.207031 " clip-rule="nonzero"/></clipPath></defs><g clip-path="url(#aa716721be)"><path fill="#ffffff" d="M 28.433594 43.886719 C 28.433594 44.371094 28.042969 44.765625 27.558594 44.765625 L 27.550781 44.765625 C 27.0625 44.765625 26.667969 44.371094 26.667969 43.886719 C 26.667969 43.398438 27.0625 43.007812 27.550781 43.007812 C 28.035156 43.007812 28.433594 43.398438 28.433594 43.886719 Z M 43.042969 47.09375 C 42.554688 47.09375 42.160156 47.488281 42.160156 47.972656 C 42.160156 48.460938 42.554688 48.851562 43.042969 48.851562 L 43.050781 48.851562 C 43.535156 48.851562 43.925781 48.460938 43.925781 47.972656 C 43.925781 47.488281 43.527344 47.09375 43.042969 47.09375 Z M 21.046875 46.464844 C 20.5625 46.464844 20.167969 46.859375 20.167969 47.34375 C 20.167969 47.832031 20.5625 48.222656 21.046875 48.222656 L 21.058594 48.222656 C 21.542969 48.222656 21.933594 47.832031 21.933594 47.34375 C 21.933594 46.859375 21.535156 46.464844 21.046875 46.464844 Z M 10.257812 48.46875 C 9.769531 48.46875 9.378906 48.863281 9.378906 49.347656 C 9.378906 49.835938 9.769531 50.230469 10.257812 50.230469 L 11.183594 50.230469 L 11.183594 57.097656 C 11.183594 57.582031 11.578125 57.976562 12.0625 57.976562 L 18.929688 57.976562 L 18.929688 58.898438 C 18.929688 59.382812 19.324219 59.777344 19.808594 59.777344 C 20.292969 59.777344 20.6875 59.382812 20.6875 58.898438 L 20.6875 57.976562 L 26.671875 57.976562 L 26.671875 58.898438 C 26.671875 59.382812 27.066406 59.777344 27.550781 59.777344 C 28.039062 59.777344 28.429688 59.382812 28.429688 58.898438 L 28.429688 57.976562 L 34.417969 57.976562 L 34.417969 58.898438 C 34.417969 59.382812 34.8125 59.777344 35.296875 59.777344 C 35.785156 59.777344 36.175781 59.382812 36.175781 58.898438 L 36.175781 57.976562 L 42.164062 57.976562 L 42.164062 58.898438 C 42.164062 59.382812 42.558594 59.777344 43.042969 59.777344 C 43.53125 59.777344 43.921875 59.382812 43.921875 58.898438 L 43.921875 57.976562 L 49.910156 57.976562 L 49.910156 58.898438 C 49.910156 59.382812 50.304688 59.777344 50.789062 59.777344 C 51.277344 59.777344 51.667969 59.382812 51.667969 58.898438 L 51.667969 57.976562 L 58.535156 57.976562 C 59.023438 57.976562 59.414062 57.582031 59.414062 57.097656 C 59.414062 56.609375 59.023438 56.214844 58.535156 56.214844 L 51.667969 56.214844 L 51.667969 55.289062 C 51.667969 54.804688 51.277344 54.410156 50.789062 54.410156 C 50.304688 54.410156 49.910156 54.804688 49.910156 55.289062 L 49.910156 56.214844 L 43.921875 56.214844 L 43.921875 55.289062 C 43.921875 54.804688 43.53125 54.410156 43.042969 54.410156 C 42.558594 54.410156 42.164062 54.804688 42.164062 55.289062 L 42.164062 56.214844 L 36.175781 56.214844 L 36.175781 55.289062 C 36.175781 54.804688 35.785156 54.410156 35.296875 54.410156 C 34.8125 54.410156 34.417969 54.804688 34.417969 55.289062 L 34.417969 56.214844 L 28.429688 56.214844 L 28.429688 55.289062 C 28.429688 54.804688 28.039062 54.410156 27.550781 54.410156 C 27.066406 54.410156 26.671875 54.804688 26.671875 55.289062 L 26.671875 56.214844 L 20.6875 56.214844 L 20.6875 55.289062 C 20.6875 54.804688 20.292969 54.410156 19.808594 54.410156 C 19.324219 54.410156 18.929688 54.804688 18.929688 55.289062 L 18.929688 56.214844 L 12.941406 56.214844 L 12.941406 50.230469 L 13.867188 50.230469 C 14.351562 50.230469 14.746094 49.835938 14.746094 49.347656 C 14.746094 48.863281 14.351562 48.46875 13.867188 48.46875 L 12.941406 48.46875 L 12.941406 42.484375 L 13.867188 42.484375 C 14.351562 42.484375 14.746094 42.089844 14.746094 41.601562 C 14.746094 41.117188 14.351562 40.722656 13.867188 40.722656 L 12.941406 40.722656 L 12.941406 34.738281 L 13.867188 34.738281 C 14.351562 34.738281 14.746094 34.34375 14.746094 33.855469 C 14.746094 33.371094 14.351562 32.976562 13.867188 32.976562 L 12.941406 32.976562 L 12.941406 26.992188 L 13.867188 26.992188 C 14.351562 26.992188 14.746094 26.597656 14.746094 26.109375 C 14.746094 25.625 14.351562 25.230469 13.867188 25.230469 L 12.941406 25.230469 L 12.941406 18.363281 C 12.941406 17.878906 12.546875 17.484375 12.0625 17.484375 C 11.578125 17.484375 11.183594 17.878906 11.183594 18.363281 L 11.183594 25.230469 L 10.257812 25.230469 C 9.769531 25.230469 9.378906 25.625 9.378906 26.109375 C 9.378906 26.597656 9.769531 26.992188 10.257812 26.992188 L 11.183594 26.992188 L 11.183594 32.976562 L 10.257812 32.976562 C 9.769531 32.976562 9.378906 33.371094 9.378906 33.855469 C 9.378906 34.34375 9.769531 34.738281 10.257812 34.738281 L 11.183594 34.738281 L 11.183594 40.722656 L 10.257812 40.722656 C 9.769531 40.722656 9.378906 41.117188 9.378906 41.601562 C 9.378906 42.089844 9.769531 42.484375 10.257812 42.484375 L 11.183594 42.484375 L 11.183594 48.46875 Z M 21.046875 40.070312 C 20.5625 40.070312 20.167969 40.464844 20.167969 40.949219 C 20.167969 41.433594 20.5625 41.828125 21.046875 41.828125 L 21.058594 41.828125 C 21.542969 41.828125 21.933594 41.433594 21.933594 40.949219 C 21.933594 40.464844 21.535156 40.070312 21.046875 40.070312 Z M 35.296875 26.992188 L 35.304688 26.992188 C 35.789062 26.992188 36.179688 26.597656 36.179688 26.109375 C 36.179688 25.625 35.78125 25.230469 35.296875 25.230469 C 34.808594 25.230469 34.414062 25.625 34.414062 26.109375 C 34.414062 26.597656 34.808594 26.992188 35.296875 26.992188 Z M 35.296875 34.003906 L 35.304688 34.003906 C 35.789062 34.003906 36.179688 33.609375 36.179688 33.125 C 36.179688 32.640625 35.78125 32.246094 35.296875 32.246094 C 34.808594 32.246094 34.414062 32.640625 34.414062 33.125 C 34.414062 33.609375 34.808594 34.003906 35.296875 34.003906 Z M 27.550781 37.03125 C 27.0625 37.03125 26.667969 37.425781 26.667969 37.910156 C 26.667969 38.398438 27.0625 38.789062 27.550781 38.789062 L 27.558594 38.789062 C 28.042969 38.789062 28.433594 38.394531 28.433594 37.910156 C 28.433594 37.425781 28.035156 37.03125 27.550781 37.03125 Z M 61.324219 23.289062 C 62.414062 27.367188 61.035156 31.535156 58.105469 34.195312 L 59.417969 36.46875 C 59.703125 36.363281 60.015625 36.347656 60.316406 36.429688 C 60.703125 36.53125 61.023438 36.777344 61.21875 37.125 L 65.144531 43.925781 C 65.613281 44.734375 65.738281 45.683594 65.496094 46.59375 C 65.253906 47.507812 64.671875 48.269531 63.855469 48.738281 C 63.316406 49.050781 62.714844 49.210938 62.101562 49.210938 C 61.796875 49.210938 61.484375 49.171875 61.179688 49.085938 C 60.269531 48.84375 59.507812 48.261719 59.042969 47.445312 L 55.113281 40.644531 C 54.746094 40.011719 54.902344 39.214844 55.449219 38.757812 L 54.136719 36.488281 C 53.964844 36.542969 53.792969 36.597656 53.617188 36.644531 C 52.675781 36.894531 51.722656 37.019531 50.773438 37.019531 C 48.886719 37.019531 47.019531 36.523438 45.339844 35.554688 C 44.765625 35.222656 44.226562 34.839844 43.730469 34.417969 L 38.128906 40.015625 C 38.394531 40.484375 38.546875 41.027344 38.546875 41.601562 C 38.546875 43.394531 37.089844 44.847656 35.296875 44.847656 C 33.507812 44.847656 32.050781 43.394531 32.050781 41.601562 C 32.050781 40.652344 32.460938 39.796875 33.113281 39.203125 L 28.164062 29.296875 C 27.964844 29.335938 27.761719 29.355469 27.550781 29.355469 C 27.078125 29.355469 26.625 29.253906 26.21875 29.070312 L 23.734375 32.03125 C 24.089844 32.550781 24.300781 33.179688 24.300781 33.855469 C 24.300781 35.648438 22.84375 37.101562 21.050781 37.101562 C 19.261719 37.101562 17.804688 35.648438 17.804688 33.855469 C 17.804688 32.066406 19.261719 30.613281 21.050781 30.613281 C 21.527344 30.613281 21.980469 30.714844 22.386719 30.898438 L 24.871094 27.9375 C 24.515625 27.417969 24.304688 26.789062 24.304688 26.109375 C 24.304688 24.320312 25.761719 22.863281 27.550781 22.863281 C 29.34375 22.863281 30.800781 24.320312 30.800781 26.109375 C 30.800781 27.0625 30.390625 27.917969 29.734375 28.511719 L 34.6875 38.414062 C 34.886719 38.378906 35.089844 38.359375 35.296875 38.359375 C 35.875 38.359375 36.414062 38.507812 36.886719 38.773438 L 42.484375 33.175781 C 41.449219 31.960938 40.6875 30.519531 40.261719 28.933594 C 39.507812 26.121094 39.894531 23.183594 41.347656 20.660156 C 42.804688 18.136719 45.15625 16.332031 47.96875 15.578125 C 50.78125 14.824219 53.71875 15.210938 56.242188 16.667969 C 58.765625 18.125 60.570312 20.476562 61.324219 23.289062 Z M 57.882812 37.328125 L 56.699219 35.277344 C 56.402344 35.46875 56.09375 35.644531 55.777344 35.808594 L 56.960938 37.859375 Z M 59.625 23.746094 C 58.992188 21.386719 57.480469 19.414062 55.363281 18.191406 C 53.246094 16.96875 50.785156 16.644531 48.425781 17.277344 C 46.066406 17.910156 44.09375 19.421875 42.871094 21.539062 C 41.652344 23.652344 41.328125 26.117188 41.960938 28.476562 C 42.382812 30.050781 43.199219 31.449219 44.320312 32.574219 C 44.320312 32.574219 44.324219 32.578125 44.328125 32.578125 C 44.328125 32.582031 44.332031 32.585938 44.335938 32.585938 C 44.890625 33.140625 45.523438 33.628906 46.21875 34.03125 C 48.335938 35.25 50.800781 35.574219 53.160156 34.945312 C 58.027344 33.636719 60.929688 28.613281 59.625 23.746094 Z M 43.042969 37.355469 C 42.554688 37.355469 42.160156 37.75 42.160156 38.234375 C 42.160156 38.71875 42.554688 39.113281 43.042969 39.113281 L 43.050781 39.113281 C 43.535156 39.113281 43.925781 38.71875 43.925781 38.234375 C 43.925781 37.75 43.527344 37.355469 43.042969 37.355469 Z M 43.042969 42.222656 C 42.554688 42.222656 42.160156 42.617188 42.160156 43.105469 C 42.160156 43.589844 42.554688 43.984375 43.042969 43.984375 L 43.050781 43.984375 C 43.535156 43.984375 43.925781 43.589844 43.925781 43.105469 C 43.925781 42.617188 43.527344 42.222656 43.042969 42.222656 Z M 57.449219 22.269531 C 58.476562 24.046875 58.746094 26.117188 58.214844 28.101562 C 57.683594 30.085938 56.410156 31.742188 54.632812 32.765625 C 53.449219 33.449219 52.136719 33.800781 50.804688 33.800781 C 50.136719 33.800781 49.464844 33.710938 48.804688 33.535156 C 47.476562 33.179688 46.300781 32.492188 45.355469 31.546875 C 44.886719 31.074219 44.476562 30.542969 44.136719 29.953125 C 42.015625 26.28125 43.277344 21.570312 46.949219 19.453125 C 50.621094 17.335938 55.332031 18.597656 57.449219 22.269531 Z M 55.925781 23.148438 C 54.292969 20.316406 50.660156 19.34375 47.828125 20.976562 C 44.996094 22.609375 44.023438 26.242188 45.660156 29.074219 C 45.769531 29.269531 45.894531 29.453125 46.023438 29.632812 L 47.960938 27.695312 C 47.695312 27.226562 47.546875 26.6875 47.546875 26.109375 C 47.546875 24.320312 49 22.863281 50.789062 22.863281 C 52.582031 22.863281 54.035156 24.320312 54.035156 26.109375 C 54.035156 27.902344 52.582031 29.355469 50.789062 29.355469 C 50.214844 29.355469 49.675781 29.207031 49.203125 28.941406 L 47.265625 30.878906 C 47.855469 31.3125 48.527344 31.640625 49.257812 31.835938 C 50.789062 32.246094 52.382812 32.035156 53.753906 31.242188 C 55.125 30.453125 56.105469 29.175781 56.515625 27.644531 C 56.925781 26.113281 56.714844 24.519531 55.925781 23.148438 Z M 55.925781 23.148438 " fill-opacity="1" fill-rule="nonzero"/></g></svg>