<svg xmlns="http://www.w3.org/2000/svg" xmlns:xlink="http://www.w3.org/1999/xlink" width="100" zoomAndPan="magnify" viewBox="0 0 75 74.999997" height="100" preserveAspectRatio="xMidYMid meet" version="1.0"><defs><clipPath id="b4f91b2194"><path d="M 10.464844 10 L 64.464844 10 L 64.464844 64.734375 L 10.464844 64.734375 Z M 10.464844 10 " clip-rule="nonzero"/></clipPath></defs><g clip-path="url(#b4f91b2194)"><path fill="#ffffff" d="M 10.4375 60.585938 C 10.4375 62.878906 12.296875 64.746094 14.597656 64.746094 C 16.898438 64.746094 18.757812 62.878906 18.757812 60.585938 C 18.757812 60.046875 18.652344 59.527344 18.457031 59.027344 C 18.457031 59.027344 18.453125 59.027344 18.453125 59.023438 L 26.460938 48.632812 C 27.722656 49.265625 29.109375 49.640625 30.53125 49.734375 C 30.785156 49.753906 31.042969 49.753906 31.285156 49.753906 C 33.277344 49.753906 35.238281 49.199219 36.917969 48.152344 L 43.796875 56.105469 C 44.382812 56.78125 45.238281 57.199219 46.136719 57.234375 L 46.257812 57.234375 C 47.117188 57.234375 47.949219 56.894531 48.5625 56.28125 C 49.824219 55.007812 49.835938 52.953125 48.570312 51.679688 C 48.53125 51.640625 48.496094 51.613281 48.390625 51.519531 L 40.429688 44.632812 C 41.550781 42.847656 42.089844 40.820312 42.050781 38.792969 L 49.683594 37.160156 C 50.476562 38.019531 51.597656 38.527344 52.769531 38.527344 C 55.070312 38.527344 56.9375 36.648438 56.9375 34.359375 C 56.9375 33.394531 56.609375 32.460938 56.003906 31.726562 L 60.996094 18.515625 L 60.996094 18.507812 C 62.976562 18.1875 64.457031 16.46875 64.457031 14.414062 C 64.457031 12.121094 62.597656 10.253906 60.296875 10.253906 C 57.996094 10.253906 56.136719 12.121094 56.136719 14.414062 C 56.136719 15.375 56.46875 16.300781 57.070312 17.035156 L 52.078125 30.253906 C 50.542969 30.507812 49.277344 31.601562 48.816406 33.074219 L 41.164062 34.707031 C 40.851562 33.980469 40.464844 33.292969 39.984375 32.632812 C 39.636719 32.167969 39.269531 31.734375 38.882812 31.359375 C 36.851562 29.320312 34.144531 28.195312 31.269531 28.195312 L 31.257812 28.195312 C 28.371094 28.195312 25.664062 29.320312 23.625 31.359375 C 21.523438 33.453125 20.410156 36.246094 20.476562 39.199219 C 20.503906 40.519531 20.765625 41.792969 21.238281 42.972656 C 21.691406 44.109375 22.339844 45.148438 23.140625 46.070312 L 15.128906 56.460938 C 14.953125 56.433594 14.773438 56.425781 14.597656 56.425781 C 12.296875 56.425781 10.4375 58.28125 10.4375 60.585938 Z M 58.203125 18.015625 C 58.371094 18.113281 58.542969 18.195312 58.722656 18.261719 C 58.84375 18.320312 58.976562 18.355469 59.097656 18.394531 C 59.230469 18.441406 59.355469 18.46875 59.484375 18.5 L 54.863281 30.753906 C 54.804688 30.726562 54.757812 30.695312 54.703125 30.667969 C 54.617188 30.621094 54.523438 30.574219 54.429688 30.535156 C 54.277344 30.46875 54.128906 30.414062 53.964844 30.367188 C 53.84375 30.328125 53.710938 30.300781 53.589844 30.273438 Z M 48.609375 34.554688 C 48.609375 34.585938 48.609375 34.601562 48.617188 34.632812 C 48.617188 34.726562 48.625 34.808594 48.644531 34.90625 C 48.65625 35.019531 48.675781 35.132812 48.703125 35.234375 C 48.722656 35.347656 48.75 35.460938 48.789062 35.566406 C 48.804688 35.648438 48.835938 35.734375 48.871094 35.820312 C 48.871094 35.839844 48.882812 35.867188 48.890625 35.886719 L 41.9375 37.367188 C 41.871094 36.921875 41.777344 36.488281 41.644531 36.054688 Z M 22.550781 42.441406 C 22.144531 41.425781 21.917969 40.3125 21.890625 39.160156 C 21.832031 36.59375 22.804688 34.179688 24.625 32.359375 C 26.398438 30.582031 28.757812 29.613281 31.257812 29.613281 L 31.269531 29.613281 C 33.769531 29.613281 36.117188 30.582031 37.882812 32.359375 C 38.222656 32.695312 38.542969 33.066406 38.851562 33.472656 C 39.382812 34.195312 39.785156 34.980469 40.078125 35.792969 C 40.363281 36.546875 40.53125 37.320312 40.609375 38.113281 L 40.609375 38.140625 C 40.597656 38.214844 40.597656 38.300781 40.617188 38.386719 C 40.617188 38.390625 40.621094 38.398438 40.625 38.40625 L 40.625 38.414062 C 40.75 40.488281 40.183594 42.574219 38.9375 44.347656 C 38.929688 44.347656 38.929688 44.359375 38.929688 44.359375 L 38.917969 44.367188 C 38.703125 44.6875 38.457031 45 38.171875 45.3125 C 38.070312 45.40625 37.976562 45.507812 37.871094 45.613281 C 37.816406 45.679688 37.75 45.734375 37.691406 45.792969 C 37.382812 46.09375 37.03125 46.375 36.644531 46.640625 C 34.890625 47.875 32.769531 48.472656 30.625 48.320312 C 28.382812 48.179688 26.269531 47.214844 24.65625 45.621094 C 24.65625 45.613281 24.644531 45.613281 24.636719 45.601562 C 24.589844 45.554688 24.542969 45.507812 24.503906 45.460938 C 23.664062 44.59375 23.003906 43.574219 22.550781 42.441406 Z M 24.144531 47.085938 C 24.496094 47.386719 24.851562 47.667969 25.230469 47.914062 L 17.644531 57.753906 C 17.324219 57.414062 16.964844 57.132812 16.5625 56.925781 L 24.148438 47.085938 Z M 24.144531 47.085938 " fill-opacity="1" fill-rule="nonzero"/></g><path fill="#ffffff" d="M 25.671875 43.8125 L 25.730469 43.867188 C 25.816406 43.980469 25.917969 44.09375 26.03125 44.207031 C 27.476562 45.652344 29.363281 46.367188 31.257812 46.367188 C 33.15625 46.367188 35.050781 45.652344 36.484375 44.207031 C 37.898438 42.792969 38.625 40.941406 38.644531 39.085938 C 38.644531 39.035156 38.65625 39 38.65625 38.953125 C 38.65625 37.953125 38.449219 36.953125 38.023438 36.019531 C 38.003906 35.960938 37.984375 35.914062 37.949219 35.859375 C 37.609375 35.09375 37.117188 34.386719 36.484375 33.753906 C 33.609375 30.867188 28.917969 30.867188 26.03125 33.753906 C 23.304688 36.480469 23.152344 40.828125 25.589844 43.726562 C 25.617188 43.753906 25.636719 43.78125 25.671875 43.8125 Z M 28.171875 44.09375 C 27.785156 43.867188 27.417969 43.585938 27.089844 43.253906 L 28.210938 41.8125 C 28.523438 42.148438 28.890625 42.425781 29.296875 42.640625 Z M 35.484375 43.207031 C 34.363281 44.339844 32.851562 44.960938 31.257812 44.960938 C 30.65625 44.960938 30.058594 44.867188 29.492188 44.699219 L 30.71875 43.101562 C 30.890625 43.132812 31.070312 43.140625 31.257812 43.140625 C 33.058594 43.140625 34.664062 41.960938 35.222656 40.273438 L 37.171875 39.847656 C 36.996094 41.113281 36.410156 42.28125 35.484375 43.207031 Z M 36.917969 37.066406 C 37.070312 37.488281 37.164062 37.933594 37.210938 38.386719 L 37.210938 38.394531 L 35.417969 38.78125 C 35.410156 38.667969 35.410156 38.554688 35.390625 38.433594 C 35.371094 38.320312 35.351562 38.207031 35.332031 38.101562 C 35.316406 37.988281 35.277344 37.875 35.25 37.761719 C 35.222656 37.648438 35.183594 37.546875 35.144531 37.441406 Z M 27.03125 34.753906 C 28.164062 33.621094 29.664062 33 31.257812 33 C 32.851562 33 34.363281 33.621094 35.484375 34.753906 C 35.796875 35.066406 36.070312 35.394531 36.296875 35.753906 L 34.34375 36.167969 C 33.558594 35.308594 32.4375 34.808594 31.257812 34.808594 C 28.957031 34.808594 27.097656 36.679688 27.097656 38.980469 C 27.097656 39.519531 27.203125 40.054688 27.410156 40.535156 L 26.183594 42.132812 C 25.589844 41.199219 25.277344 40.113281 25.277344 38.980469 C 25.277344 37.386719 25.898438 35.875 27.03125 34.753906 Z M 27.03125 34.753906 " fill-opacity="1" fill-rule="nonzero"/><path fill="#ffffff" d="M 41.34375 11.289062 C 40.769531 11.289062 40.257812 11.582031 39.976562 12.074219 L 32.523438 24.980469 C 32.238281 25.46875 32.238281 26.066406 32.523438 26.554688 C 32.816406 27.046875 33.324219 27.339844 33.890625 27.339844 L 48.789062 27.339844 C 49.363281 27.339844 49.871094 27.046875 50.15625 26.554688 C 50.4375 26.066406 50.4375 25.46875 50.15625 24.980469 L 42.710938 12.074219 C 42.417969 11.582031 41.910156 11.289062 41.34375 11.289062 Z M 40.636719 16.527344 C 40.636719 16.128906 40.949219 15.820312 41.34375 15.820312 C 41.730469 15.820312 42.050781 16.128906 42.050781 16.527344 L 42.050781 22 C 42.050781 22.386719 41.730469 22.707031 41.34375 22.707031 C 40.949219 22.707031 40.636719 22.386719 40.636719 22 Z M 41.363281 24.527344 C 40.964844 24.527344 40.644531 24.207031 40.644531 23.820312 C 40.644531 23.421875 40.957031 23.113281 41.351562 23.113281 L 41.363281 23.113281 C 41.75 23.113281 42.070312 23.421875 42.070312 23.820312 C 42.070312 24.207031 41.75 24.527344 41.363281 24.527344 Z M 41.363281 24.527344 " fill-opacity="1" fill-rule="nonzero"/></svg>